<?xml version="1.0" encoding="UTF-8" standalone="no"?>
<!DOCTYPE svg PUBLIC "-//W3C//DTD SVG 1.1//EN"
 "http://www.w3.org/Graphics/SVG/1.1/DTD/svg11.dtd">
<!-- Generated by graphviz version 2.44.0 (20200518.1210)
 -->
<!-- Title: g Pages: 1 -->
<svg width="313pt" height="638pt"
 viewBox="0.00 0.00 313.03 638.00" xmlns="http://www.w3.org/2000/svg" xmlns:xlink="http://www.w3.org/1999/xlink">
<g id="graph0" class="graph" transform="scale(1 1) rotate(0) translate(4 634)">
<title>g</title>
<polygon fill="white" stroke="transparent" points="-4,4 -4,-634 309.03,-634 309.03,4 -4,4"/>
<g id="node1" class="node">
<title></title>
<ellipse fill="none" stroke="#666666" cx="3.5" cy="-335" rx="3.5" ry="3.5"/>
</g>
<!-- /object -->
<g id="node2" class="node">
<title>/object</title>
<ellipse fill="none" stroke="#666666" cx="83.85" cy="-531" rx="3.5" ry="3.5"/>
</g>
<!-- &#45;&gt;/object -->
<g id="edge1" class="edge">
<title>&#45;&gt;/object</title>
<path fill="none" stroke="#999999" d="M5.73,-338.08C14.2,-359.27 63.97,-483.78 78.72,-520.69"/>
<polygon fill="#999999" stroke="#999999" points="81.67,-528.07 75.76,-522.36 80.28,-524.59 78.89,-521.11 78.89,-521.11 78.89,-521.11 80.28,-524.59 82.02,-519.86 81.67,-528.07 81.67,-528.07"/>
<text text-anchor="middle" x="43.67" y="-482.2" font-family="Helvetica,sans-Serif" font-size="14.00">object</text>
</g>
<!-- /folder -->
<g id="node6" class="node">
<title>/folder</title>
<ellipse fill="none" stroke="#666666" cx="83.85" cy="-369" rx="3.5" ry="3.5"/>
</g>
<!-- &#45;&gt;/folder -->
<g id="edge5" class="edge">
<title>&#45;&gt;/folder</title>
<path fill="none" stroke="#999999" d="M7.11,-336.13C17.42,-340.61 55.68,-357.21 73.54,-364.96"/>
<polygon fill="#999999" stroke="#999999" points="80.46,-367.97 72.24,-368.08 77.02,-366.47 73.58,-364.98 73.58,-364.98 73.58,-364.98 77.02,-366.47 74.93,-361.88 80.46,-367.97 80.46,-367.97"/>
<text text-anchor="middle" x="43.67" y="-363.2" font-family="Helvetica,sans-Serif" font-size="14.00">folder</text>
</g>
<!-- /fn -->
<g id="node10" class="node">
<title>/fn</title>
<ellipse fill="none" stroke="#666666" cx="83.85" cy="-254" rx="3.5" ry="3.5"/>
</g>
<!-- &#45;&gt;/fn -->
<g id="edge9" class="edge">
<title>&#45;&gt;/fn</title>
<path fill="none" stroke="#999999" d="M6.44,-333C15.92,-323.19 57.73,-279.97 75.16,-261.94"/>
<polygon fill="#999999" stroke="#999999" points="80.69,-256.23 77.9,-263.97 78.08,-258.93 75.47,-261.62 75.47,-261.62 75.47,-261.62 78.08,-258.93 73.05,-259.27 80.69,-256.23 80.69,-256.23"/>
<text text-anchor="middle" x="43.67" y="-317.2" font-family="Helvetica,sans-Serif" font-size="14.00">fn</text>
</g>
<!-- /site -->
<g id="node14" class="node">
<title>/site</title>
<ellipse fill="none" stroke="#666666" cx="83.85" cy="-99" rx="3.5" ry="3.5"/>
</g>
<!-- &#45;&gt;/site -->
<g id="edge13" class="edge">
<title>&#45;&gt;/site</title>
<path fill="none" stroke="#999999" d="M5.16,-331.88C7.49,-321.05 15.68,-284.04 25,-254.2 42.4,-198.46 68.59,-133.5 78.68,-109.01"/>
<polygon fill="#999999" stroke="#999999" points="81.62,-101.92 81.87,-110.14 80.19,-105.38 78.75,-108.85 78.75,-108.85 78.75,-108.85 80.19,-105.38 75.63,-107.55 81.62,-101.92 81.62,-101.92"/>
<text text-anchor="middle" x="43.67" y="-258.2" font-family="Helvetica,sans-Serif" font-size="14.00">site</text>
</g>
<!-- /object/Alice -->
<g id="node3" class="node">
<title>/object/Alice</title>
<polygon fill="none" stroke="#b3b3b3" points="302.19,-630 159.62,-630 159.62,-594 302.19,-594 302.19,-630"/>
<text text-anchor="middle" x="230.91" y="-607.8" font-family="Helvetica,sans-Serif" font-size="14.00">Hello, Alice! This i…</text>
</g>
<!-- /object&#45;&gt;/object/Alice -->
<g id="edge2" class="edge">
<title>/object&#45;&gt;/object/Alice</title>
<path fill="none" stroke="#999999" d="M86.14,-533.85C88.91,-539.66 95.92,-553 105.35,-561 120.28,-573.68 138.8,-583.53 156.95,-591.04"/>
<polygon fill="#999999" stroke="#999999" points="164.15,-593.91 155.94,-594.27 160.67,-592.52 157.19,-591.13 157.19,-591.13 157.19,-591.13 160.67,-592.52 158.43,-588 164.15,-593.91 164.15,-593.91"/>
<text text-anchor="middle" x="122.06" y="-585.2" font-family="Helvetica,sans-Serif" font-size="14.00">Alice</text>
</g>
<!-- /object/Bob -->
<g id="node4" class="node">
<title>/object/Bob</title>
<polygon fill="none" stroke="#b3b3b3" points="305.15,-576 156.66,-576 156.66,-540 305.15,-540 305.15,-576"/>
<text text-anchor="middle" x="230.91" y="-553.8" font-family="Helvetica,sans-Serif" font-size="14.00">Hello, Bob! This is …</text>
</g>
<!-- /object&#45;&gt;/object/Bob -->
<g id="edge3" class="edge">
<title>/object&#45;&gt;/object/Bob</title>
<path fill="none" stroke="#999999" d="M87.36,-531.47C95.38,-532.96 121.38,-537.8 149.03,-542.95"/>
<polygon fill="#999999" stroke="#999999" points="156.47,-544.33 148.48,-546.28 152.79,-543.65 149.1,-542.96 149.1,-542.96 149.1,-542.96 152.79,-543.65 149.72,-539.64 156.47,-544.33 156.47,-544.33"/>
<text text-anchor="middle" x="122.06" y="-544.2" font-family="Helvetica,sans-Serif" font-size="14.00">Bob</text>
</g>
<!-- /object/Carol -->
<g id="node5" class="node">
<title>/object/Carol</title>
<polygon fill="none" stroke="#b3b3b3" points="303.79,-522 158.02,-522 158.02,-486 303.79,-486 303.79,-522"/>
<text text-anchor="middle" x="230.91" y="-499.8" font-family="Helvetica,sans-Serif" font-size="14.00">Hello, Carol! This i…</text>
</g>
<!-- /object&#45;&gt;/object/Carol -->
<g id="edge4" class="edge">
<title>/object&#45;&gt;/object/Carol</title>
<path fill="none" stroke="#999999" d="M86.68,-528.62C89.94,-524.61 97.16,-516.6 105.35,-513.2 119.37,-507.36 135.04,-504.03 150.41,-502.27"/>
<polygon fill="#999999" stroke="#999999" points="157.92,-501.53 150.79,-505.63 154.19,-501.9 150.46,-502.27 150.46,-502.27 150.46,-502.27 154.19,-501.9 150.13,-498.91 157.92,-501.53 157.92,-501.53"/>
<text text-anchor="middle" x="122.06" y="-517.2" font-family="Helvetica,sans-Serif" font-size="14.00">Carol</text>
</g>
<!-- /folder/Alice -->
<g id="node7" class="node">
<title>/folder/Alice</title>
<polygon fill="none" stroke="#b3b3b3" points="302.19,-468 159.62,-468 159.62,-432 302.19,-432 302.19,-468"/>
<text text-anchor="middle" x="230.91" y="-445.8" font-family="Helvetica,sans-Serif" font-size="14.00">Hello, Alice! This i…</text>
</g>
<!-- /folder&#45;&gt;/folder/Alice -->
<g id="edge6" class="edge">
<title>/folder&#45;&gt;/folder/Alice</title>
<path fill="none" stroke="#999999" d="M86.14,-371.85C88.91,-377.66 95.92,-391 105.35,-399 120.28,-411.68 138.8,-421.53 156.95,-429.04"/>
<polygon fill="#999999" stroke="#999999" points="164.15,-431.91 155.94,-432.27 160.67,-430.52 157.19,-429.13 157.19,-429.13 157.19,-429.13 160.67,-430.52 158.43,-426 164.15,-431.91 164.15,-431.91"/>
<text text-anchor="middle" x="122.06" y="-423.2" font-family="Helvetica,sans-Serif" font-size="14.00">Alice</text>
</g>
<!-- /folder/Bob -->
<g id="node8" class="node">
<title>/folder/Bob</title>
<polygon fill="none" stroke="#b3b3b3" points="305.15,-414 156.66,-414 156.66,-378 305.15,-378 305.15,-414"/>
<text text-anchor="middle" x="230.91" y="-391.8" font-family="Helvetica,sans-Serif" font-size="14.00">Hello, Bob! This is …</text>
</g>
<!-- /folder&#45;&gt;/folder/Bob -->
<g id="edge7" class="edge">
<title>/folder&#45;&gt;/folder/Bob</title>
<path fill="none" stroke="#999999" d="M87.36,-369.47C95.38,-370.96 121.38,-375.8 149.03,-380.95"/>
<polygon fill="#999999" stroke="#999999" points="156.47,-382.33 148.48,-384.28 152.79,-381.65 149.1,-380.96 149.1,-380.96 149.1,-380.96 152.79,-381.65 149.72,-377.64 156.47,-382.33 156.47,-382.33"/>
<text text-anchor="middle" x="122.06" y="-382.2" font-family="Helvetica,sans-Serif" font-size="14.00">Bob</text>
</g>
<!-- /folder/Carol -->
<g id="node9" class="node">
<title>/folder/Carol</title>
<polygon fill="none" stroke="#b3b3b3" points="303.79,-360 158.02,-360 158.02,-324 303.79,-324 303.79,-360"/>
<text text-anchor="middle" x="230.91" y="-337.8" font-family="Helvetica,sans-Serif" font-size="14.00">Hello, Carol! This i…</text>
</g>
<!-- /folder&#45;&gt;/folder/Carol -->
<g id="edge8" class="edge">
<title>/folder&#45;&gt;/folder/Carol</title>
<path fill="none" stroke="#999999" d="M86.68,-366.62C89.94,-362.61 97.16,-354.6 105.35,-351.2 119.37,-345.36 135.04,-342.03 150.41,-340.27"/>
<polygon fill="#999999" stroke="#999999" points="157.92,-339.53 150.79,-343.63 154.19,-339.9 150.46,-340.27 150.46,-340.27 150.46,-340.27 154.19,-339.9 150.13,-336.91 157.92,-339.53 157.92,-339.53"/>
<text text-anchor="middle" x="122.06" y="-355.2" font-family="Helvetica,sans-Serif" font-size="14.00">Carol</text>
</g>
<!-- /fn/Alice -->
<g id="node11" class="node">
<title>/fn/Alice</title>
<polygon fill="none" stroke="#b3b3b3" points="302.19,-306 159.62,-306 159.62,-270 302.19,-270 302.19,-306"/>
<text text-anchor="middle" x="230.91" y="-283.8" font-family="Helvetica,sans-Serif" font-size="14.00">Hello, Alice! This i…</text>
</g>
<!-- /fn&#45;&gt;/fn/Alice -->
<g id="edge10" class="edge">
<title>/fn&#45;&gt;/fn/Alice</title>
<path fill="none" stroke="#999999" d="M87.11,-255.69C90.75,-258.33 98.22,-263.38 105.35,-266 120.05,-271.4 136.23,-275.5 151.92,-278.61"/>
<polygon fill="#999999" stroke="#999999" points="159.57,-280.05 151.58,-281.98 155.89,-279.36 152.2,-278.66 152.2,-278.66 152.2,-278.66 155.89,-279.36 152.83,-275.34 159.57,-280.05 159.57,-280.05"/>
<text text-anchor="middle" x="122.06" y="-279.2" font-family="Helvetica,sans-Serif" font-size="14.00">Alice</text>
</g>
<!-- /fn/Bob -->
<g id="node12" class="node">
<title>/fn/Bob</title>
<polygon fill="none" stroke="#b3b3b3" points="305.15,-252 156.66,-252 156.66,-216 305.15,-216 305.15,-252"/>
<text text-anchor="middle" x="230.91" y="-229.8" font-family="Helvetica,sans-Serif" font-size="14.00">Hello, Bob! This is …</text>
</g>
<!-- /fn&#45;&gt;/fn/Bob -->
<g id="edge11" class="edge">
<title>/fn&#45;&gt;/fn/Bob</title>
<path fill="none" stroke="#999999" d="M87.48,-253.29C91.36,-252.26 98.87,-250.35 105.35,-249.2 119.41,-246.7 134.44,-244.49 149.02,-242.57"/>
<polygon fill="#999999" stroke="#999999" points="156.6,-241.6 149.59,-245.9 152.88,-242.08 149.16,-242.56 149.16,-242.56 149.16,-242.56 152.88,-242.08 148.73,-239.21 156.6,-241.6 156.6,-241.6"/>
<text text-anchor="middle" x="122.06" y="-253.2" font-family="Helvetica,sans-Serif" font-size="14.00">Bob</text>
</g>
<!-- /fn/Carol -->
<g id="node13" class="node">
<title>/fn/Carol</title>
<polygon fill="none" stroke="#b3b3b3" points="303.79,-198 158.02,-198 158.02,-162 303.79,-162 303.79,-198"/>
<text text-anchor="middle" x="230.91" y="-175.8" font-family="Helvetica,sans-Serif" font-size="14.00">Hello, Carol! This i…</text>
</g>
<!-- /fn&#45;&gt;/fn/Carol -->
<g id="edge12" class="edge">
<title>/fn&#45;&gt;/fn/Carol</title>
<path fill="none" stroke="#999999" d="M86.05,-250.99C88.66,-244.87 95.39,-230.91 105.35,-223.2 118.61,-212.93 134.48,-205.01 150.39,-198.92"/>
<polygon fill="#999999" stroke="#999999" points="157.69,-196.25 151.81,-201.99 154.17,-197.54 150.65,-198.82 150.65,-198.82 150.65,-198.82 154.17,-197.54 149.49,-195.65 157.69,-196.25 157.69,-196.25"/>
<text text-anchor="middle" x="122.06" y="-227.2" font-family="Helvetica,sans-Serif" font-size="14.00">Carol</text>
</g>
<!-- /site/Alice -->
<g id="node15" class="node">
<title>/site/Alice</title>
<polygon fill="none" stroke="#b3b3b3" points="302.19,-144 159.62,-144 159.62,-108 302.19,-108 302.19,-144"/>
<text text-anchor="middle" x="230.91" y="-121.8" font-family="Helvetica,sans-Serif" font-size="14.00">Hello, Alice! This i…</text>
</g>
<!-- /site&#45;&gt;/site/Alice -->
<g id="edge14" class="edge">
<title>/site&#45;&gt;/site/Alice</title>
<path fill="none" stroke="#999999" d="M87.36,-99.47C95.65,-101.01 123.2,-106.14 151.9,-111.48"/>
<polygon fill="#999999" stroke="#999999" points="159.61,-112.92 151.62,-114.86 155.92,-112.23 152.23,-111.54 152.23,-111.54 152.23,-111.54 155.92,-112.23 152.85,-108.22 159.61,-112.92 159.61,-112.92"/>
<text text-anchor="middle" x="122.06" y="-112.2" font-family="Helvetica,sans-Serif" font-size="14.00">Alice</text>
</g>
<!-- /site/Bob -->
<g id="node16" class="node">
<title>/site/Bob</title>
<polygon fill="none" stroke="#b3b3b3" points="305.15,-90 156.66,-90 156.66,-54 305.15,-54 305.15,-90"/>
<text text-anchor="middle" x="230.91" y="-67.8" font-family="Helvetica,sans-Serif" font-size="14.00">Hello, Bob! This is …</text>
</g>
<!-- /site&#45;&gt;/site/Bob -->
<g id="edge15" class="edge">
<title>/site&#45;&gt;/site/Bob</title>
<path fill="none" stroke="#999999" d="M86.68,-96.62C89.94,-92.61 97.16,-84.6 105.35,-81.2 118.9,-75.56 133.99,-72.26 148.87,-70.46"/>
<polygon fill="#999999" stroke="#999999" points="156.62,-69.64 149.51,-73.78 152.89,-70.03 149.16,-70.42 149.16,-70.42 149.16,-70.42 152.89,-70.03 148.81,-67.07 156.62,-69.64 156.62,-69.64"/>
<text text-anchor="middle" x="122.06" y="-85.2" font-family="Helvetica,sans-Serif" font-size="14.00">Bob</text>
</g>
<!-- /site/Carol -->
<g id="node17" class="node">
<title>/site/Carol</title>
<polygon fill="none" stroke="#b3b3b3" points="303.79,-36 158.02,-36 158.02,0 303.79,0 303.79,-36"/>
<text text-anchor="middle" x="230.91" y="-13.8" font-family="Helvetica,sans-Serif" font-size="14.00">Hello, Carol! This i…</text>
</g>
<!-- /site&#45;&gt;/site/Carol -->
<g id="edge16" class="edge">
<title>/site&#45;&gt;/site/Carol</title>
<path fill="none" stroke="#999999" d="M85.28,-95.63C86.58,-86.9 91.28,-63.37 105.35,-51.2 118.12,-40.15 134.18,-32.74 150.48,-27.77"/>
<polygon fill="#999999" stroke="#999999" points="157.98,-25.65 151.68,-30.94 154.37,-26.67 150.76,-27.69 150.76,-27.69 150.76,-27.69 154.37,-26.67 149.84,-24.44 157.98,-25.65 157.98,-25.65"/>
<text text-anchor="middle" x="122.06" y="-56.2" font-family="Helvetica,sans-Serif" font-size="14.00">Carol</text>
</g>
</g>
</svg>

