<?xml version="1.0" encoding="UTF-8" standalone="no"?>
<!DOCTYPE svg PUBLIC "-//W3C//DTD SVG 1.1//EN"
 "http://www.w3.org/Graphics/SVG/1.1/DTD/svg11.dtd">
<!-- Generated by graphviz version 2.44.0 (20200518.1210)
 -->
<!-- Title: g Pages: 1 -->
<svg width="780pt" height="269pt"
 viewBox="0.00 0.00 780.21 268.55" xmlns="http://www.w3.org/2000/svg" xmlns:xlink="http://www.w3.org/1999/xlink">
<g id="graph0" class="graph" transform="scale(1 1) rotate(0) translate(4 264.55)">
<title>g</title>
<polygon fill="white" stroke="transparent" points="-4,4 -4,-264.55 776.21,-264.55 776.21,4 -4,4"/>
<g id="node1" class="node">
<title></title>
<ellipse fill="none" stroke="#666666" cx="3.5" cy="-114.55" rx="3.5" ry="3.5"/>
</g>
<!-- /gallery.html = this().hbs -->
<g id="node2" class="node">
<title>/gallery.html = this().hbs</title>
<polygon fill="none" stroke="#b3b3b3" points="486.03,-192.55 321.12,-192.55 321.12,-156.55 486.03,-156.55 486.03,-192.55"/>
<text text-anchor="middle" x="403.58" y="-170.35" font-family="Helvetica,sans-Serif" font-size="14.00">/gallery.html = this().hbs</text>
</g>
<!-- &#45;&gt;/gallery.html = this().hbs -->
<g id="edge1" class="edge">
<title>&#45;&gt;/gallery.html = this().hbs</title>
<path fill="none" stroke="#999999" d="M5.36,-117.6C7.44,-124.36 13.45,-140.58 25,-147.55 112.2,-200.2 232.23,-198.99 313.36,-189.84"/>
<polygon fill="#999999" stroke="#999999" points="321.08,-188.93 314.03,-193.16 317.36,-189.37 313.64,-189.81 313.64,-189.81 313.64,-189.81 317.36,-189.37 313.24,-186.46 321.08,-188.93 321.08,-188.93"/>
<text text-anchor="middle" x="141.88" y="-198.75" font-family="Helvetica,sans-Serif" font-size="14.00">gallery.html = this().hbs</text>
</g>
<!-- /images -->
<g id="node3" class="node">
<title>/images</title>
<ellipse fill="none" stroke="#666666" cx="403.58" cy="-134.55" rx="3.5" ry="3.5"/>
</g>
<!-- &#45;&gt;/images -->
<g id="edge2" class="edge">
<title>&#45;&gt;/images</title>
<path fill="none" stroke="#999999" d="M7.04,-114.68C37.53,-116.21 332.98,-131.05 392.25,-134.03"/>
<polygon fill="#999999" stroke="#999999" points="399.87,-134.41 392.21,-137.41 396.12,-134.23 392.38,-134.04 392.38,-134.04 392.38,-134.04 396.12,-134.23 392.55,-130.67 399.87,-134.41 399.87,-134.41"/>
<text text-anchor="middle" x="141.88" y="-130.75" font-family="Helvetica,sans-Serif" font-size="14.00">images</text>
</g>
<!-- /thumbnail.js -->
<g id="node9" class="node">
<title>/thumbnail.js</title>
<polygon fill="none" stroke="#b3b3b3" points="450.64,-112.55 356.51,-112.55 356.51,-76.55 450.64,-76.55 450.64,-112.55"/>
<text text-anchor="middle" x="403.58" y="-90.35" font-family="Helvetica,sans-Serif" font-size="14.00">/thumbnail.js</text>
</g>
<!-- &#45;&gt;/thumbnail.js -->
<g id="edge8" class="edge">
<title>&#45;&gt;/thumbnail.js</title>
<path fill="none" stroke="#999999" d="M6.05,-112.12C9.07,-107.67 16.19,-98.31 25,-94.75 133.11,-51.03 273.29,-67.98 348.77,-82.39"/>
<polygon fill="#999999" stroke="#999999" points="356.31,-83.86 348.3,-85.73 352.63,-83.14 348.95,-82.42 348.95,-82.42 348.95,-82.42 352.63,-83.14 349.6,-79.11 356.31,-83.86 356.31,-83.86"/>
<text text-anchor="middle" x="141.88" y="-98.75" font-family="Helvetica,sans-Serif" font-size="14.00">thumbnail.js</text>
</g>
<!-- /thumbnails = map(images, thumbnail) -->
<g id="node10" class="node">
<title>/thumbnails = map(images, thumbnail)</title>
<polygon fill="none" stroke="#b3b3b3" points="530.22,-58.55 276.93,-58.55 276.93,-22.55 530.22,-22.55 530.22,-58.55"/>
<text text-anchor="middle" x="403.58" y="-36.35" font-family="Helvetica,sans-Serif" font-size="14.00">/thumbnails = map(images, thumbnail)</text>
</g>
<!-- &#45;&gt;/thumbnails = map(images, thumbnail) -->
<g id="edge9" class="edge">
<title>&#45;&gt;/thumbnails = map(images, thumbnail)</title>
<path fill="none" stroke="#999999" d="M4.28,-110.95C3.78,-99.33 4,-62.61 25,-46.75 115.47,21.57 255.99,0.42 337.67,-20.5"/>
<polygon fill="#999999" stroke="#999999" points="345.39,-22.52 337.28,-23.89 341.76,-21.57 338.14,-20.62 338.14,-20.62 338.14,-20.62 341.76,-21.57 338.99,-17.36 345.39,-22.52 345.39,-22.52"/>
<text text-anchor="middle" x="141.88" y="-51.75" font-family="Helvetica,sans-Serif" font-size="14.00">thumbnails = map(images, thumbnail)</text>
</g>
<!-- /images/image1.jpg -->
<g id="node4" class="node">
<title>/images/image1.jpg</title>
<polygon fill="none" stroke="#b3b3b3" points="772.39,-260.55 634.68,-260.55 634.68,-224.55 772.39,-224.55 772.39,-260.55"/>
<text text-anchor="middle" x="703.54" y="-238.35" font-family="Helvetica,sans-Serif" font-size="14.00">/images/image1.jpg</text>
</g>
<!-- /images&#45;&gt;/images/image1.jpg -->
<g id="edge3" class="edge">
<title>/images&#45;&gt;/images/image1.jpg</title>
<path fill="none" stroke="#999999" d="M407.33,-133.89C421.88,-130.61 490.55,-117.23 530.4,-147.55 547.87,-160.84 532.38,-178.54 548.4,-193.55 569.94,-213.73 599.77,-225.6 627.46,-232.58"/>
<polygon fill="#999999" stroke="#999999" points="634.83,-234.34 626.75,-235.88 631.18,-233.46 627.53,-232.59 627.53,-232.59 627.53,-232.59 631.18,-233.46 628.31,-229.31 634.83,-234.34 634.83,-234.34"/>
<text text-anchor="middle" x="582.63" y="-231.75" font-family="Helvetica,sans-Serif" font-size="14.00">image1.jpg</text>
</g>
<!-- /images/image2.jpg -->
<g id="node5" class="node">
<title>/images/image2.jpg</title>
<polygon fill="none" stroke="#b3b3b3" points="772.39,-206.55 634.68,-206.55 634.68,-170.55 772.39,-170.55 772.39,-206.55"/>
<text text-anchor="middle" x="703.54" y="-184.35" font-family="Helvetica,sans-Serif" font-size="14.00">/images/image2.jpg</text>
</g>
<!-- /images&#45;&gt;/images/image2.jpg -->
<g id="edge4" class="edge">
<title>/images&#45;&gt;/images/image2.jpg</title>
<path fill="none" stroke="#999999" d="M407.38,-134.52C421.1,-134.42 482.44,-134.76 530.4,-147.55 538.86,-149.81 540.07,-152.84 548.4,-155.55 573.62,-163.76 601.84,-170.48 627.18,-175.67"/>
<polygon fill="#999999" stroke="#999999" points="634.59,-177.16 626.57,-178.99 630.91,-176.42 627.24,-175.68 627.24,-175.68 627.24,-175.68 630.91,-176.42 627.9,-172.37 634.59,-177.16 634.59,-177.16"/>
<text text-anchor="middle" x="582.63" y="-176.75" font-family="Helvetica,sans-Serif" font-size="14.00">image2.jpg</text>
</g>
<!-- /images/image3.jpg -->
<g id="node6" class="node">
<title>/images/image3.jpg</title>
<polygon fill="none" stroke="#b3b3b3" points="772.39,-152.55 634.68,-152.55 634.68,-116.55 772.39,-116.55 772.39,-152.55"/>
<text text-anchor="middle" x="703.54" y="-130.35" font-family="Helvetica,sans-Serif" font-size="14.00">/images/image3.jpg</text>
</g>
<!-- /images&#45;&gt;/images/image3.jpg -->
<g id="edge5" class="edge">
<title>/images&#45;&gt;/images/image3.jpg</title>
<path fill="none" stroke="#999999" d="M407.15,-134.55C426.13,-134.55 545.87,-134.55 626.95,-134.55"/>
<polygon fill="#999999" stroke="#999999" points="634.67,-134.55 627.17,-137.92 630.92,-134.55 627.17,-134.55 627.17,-134.55 627.17,-134.55 630.92,-134.55 627.17,-131.17 634.67,-134.55 634.67,-134.55"/>
<text text-anchor="middle" x="582.63" y="-138.75" font-family="Helvetica,sans-Serif" font-size="14.00">image3.jpg</text>
</g>
<!-- /images/image4.jpg -->
<g id="node7" class="node">
<title>/images/image4.jpg</title>
<polygon fill="none" stroke="#b3b3b3" points="772.39,-98.55 634.68,-98.55 634.68,-62.55 772.39,-62.55 772.39,-98.55"/>
<text text-anchor="middle" x="703.54" y="-76.35" font-family="Helvetica,sans-Serif" font-size="14.00">/images/image4.jpg</text>
</g>
<!-- /images&#45;&gt;/images/image4.jpg -->
<g id="edge6" class="edge">
<title>/images&#45;&gt;/images/image4.jpg</title>
<path fill="none" stroke="#999999" d="M407.38,-134.57C421.08,-134.63 482.38,-134.11 530.4,-121.55 538.83,-119.34 540.1,-116.41 548.4,-113.75 573.66,-105.64 601.89,-98.91 627.22,-93.68"/>
<polygon fill="#999999" stroke="#999999" points="634.63,-92.18 627.95,-96.98 630.96,-92.93 627.28,-93.67 627.28,-93.67 627.28,-93.67 630.96,-92.93 626.61,-90.36 634.63,-92.18 634.63,-92.18"/>
<text text-anchor="middle" x="582.63" y="-117.75" font-family="Helvetica,sans-Serif" font-size="14.00">image4.jpg</text>
</g>
<!-- /images/image5.jpg -->
<g id="node8" class="node">
<title>/images/image5.jpg</title>
<polygon fill="none" stroke="#b3b3b3" points="772.39,-44.55 634.68,-44.55 634.68,-8.55 772.39,-8.55 772.39,-44.55"/>
<text text-anchor="middle" x="703.54" y="-22.35" font-family="Helvetica,sans-Serif" font-size="14.00">/images/image5.jpg</text>
</g>
<!-- /images&#45;&gt;/images/image5.jpg -->
<g id="edge7" class="edge">
<title>/images&#45;&gt;/images/image5.jpg</title>
<path fill="none" stroke="#999999" d="M407.34,-135.21C421.9,-138.52 490.64,-151.98 530.4,-121.55 548.09,-108 532.14,-89.99 548.4,-74.75 569.89,-54.59 599.72,-42.86 627.42,-36.03"/>
<polygon fill="#999999" stroke="#999999" points="634.78,-34.32 628.24,-39.31 631.13,-35.17 627.48,-36.02 627.48,-36.02 627.48,-36.02 631.13,-35.17 626.71,-32.73 634.78,-34.32 634.78,-34.32"/>
<text text-anchor="middle" x="582.63" y="-79.75" font-family="Helvetica,sans-Serif" font-size="14.00">image5.jpg</text>
</g>
</g>
</svg>

