<?xml version="1.0" encoding="UTF-8" standalone="no"?>
<!DOCTYPE svg PUBLIC "-//W3C//DTD SVG 1.1//EN"
 "http://www.w3.org/Graphics/SVG/1.1/DTD/svg11.dtd">
<!-- Generated by graphviz version 2.44.0 (20200518.1210)
 -->
<!-- Title: g Pages: 1 -->
<svg width="796pt" height="269pt"
 viewBox="0.00 0.00 795.78 268.55" xmlns="http://www.w3.org/2000/svg" xmlns:xlink="http://www.w3.org/1999/xlink">
<g id="graph0" class="graph" transform="scale(1 1) rotate(0) translate(4 264.55)">
<title>g</title>
<polygon fill="white" stroke="transparent" points="-4,4 -4,-264.55 791.78,-264.55 791.78,4 -4,4"/>
<g id="node1" class="node">
<title></title>
<ellipse fill="none" stroke="#666666" cx="3.5" cy="-114.55" rx="3.5" ry="3.5"/>
</g>
<!-- /gallery.html = this().hbs -->
<g id="node2" class="node">
<title>/gallery.html = this().hbs</title>
<polygon fill="none" stroke="#b3b3b3" points="486.03,-192.55 321.12,-192.55 321.12,-156.55 486.03,-156.55 486.03,-192.55"/>
<text text-anchor="middle" x="403.58" y="-170.35" font-family="Helvetica,sans-Serif" font-size="14.00">/gallery.html = this().hbs</text>
</g>
<!-- &#45;&gt;/gallery.html = this().hbs -->
<g id="edge1" class="edge">
<title>&#45;&gt;/gallery.html = this().hbs</title>
<path fill="none" stroke="#999999" d="M5.36,-117.6C7.44,-124.36 13.45,-140.58 25,-147.55 112.2,-200.2 232.23,-198.99 313.36,-189.84"/>
<polygon fill="#999999" stroke="#999999" points="321.08,-188.93 314.03,-193.16 317.36,-189.37 313.64,-189.81 313.64,-189.81 313.64,-189.81 317.36,-189.37 313.24,-186.46 321.08,-188.93 321.08,-188.93"/>
<text text-anchor="middle" x="141.88" y="-198.75" font-family="Helvetica,sans-Serif" font-size="14.00">gallery.html = this().hbs</text>
</g>
<!-- /images -->
<g id="node3" class="node">
<title>/images</title>
<ellipse fill="none" stroke="#666666" cx="403.58" cy="-134.55" rx="3.5" ry="3.5"/>
</g>
<!-- &#45;&gt;/images -->
<g id="edge2" class="edge">
<title>&#45;&gt;/images</title>
<path fill="none" stroke="#999999" d="M7.04,-114.68C37.53,-116.21 332.98,-131.05 392.25,-134.03"/>
<polygon fill="#999999" stroke="#999999" points="399.87,-134.41 392.21,-137.41 396.12,-134.23 392.38,-134.04 392.38,-134.04 392.38,-134.04 396.12,-134.23 392.55,-130.67 399.87,-134.41 399.87,-134.41"/>
<text text-anchor="middle" x="141.88" y="-130.75" font-family="Helvetica,sans-Serif" font-size="14.00">images</text>
</g>
<!-- /thumbnail.js -->
<g id="node9" class="node">
<title>/thumbnail.js</title>
<polygon fill="none" stroke="#b3b3b3" points="450.64,-112.55 356.51,-112.55 356.51,-76.55 450.64,-76.55 450.64,-112.55"/>
<text text-anchor="middle" x="403.58" y="-90.35" font-family="Helvetica,sans-Serif" font-size="14.00">/thumbnail.js</text>
</g>
<!-- &#45;&gt;/thumbnail.js -->
<g id="edge8" class="edge">
<title>&#45;&gt;/thumbnail.js</title>
<path fill="none" stroke="#999999" d="M6.05,-112.12C9.07,-107.67 16.19,-98.31 25,-94.75 133.11,-51.03 273.29,-67.98 348.77,-82.39"/>
<polygon fill="#999999" stroke="#999999" points="356.31,-83.86 348.3,-85.73 352.63,-83.14 348.95,-82.42 348.95,-82.42 348.95,-82.42 352.63,-83.14 349.6,-79.11 356.31,-83.86 356.31,-83.86"/>
<text text-anchor="middle" x="141.88" y="-98.75" font-family="Helvetica,sans-Serif" font-size="14.00">thumbnail.js</text>
</g>
<!-- /thumbnails = map(images, thumbnail) -->
<g id="node10" class="node">
<title>/thumbnails = map(images, thumbnail)</title>
<polygon fill="none" stroke="#b3b3b3" points="530.22,-58.55 276.93,-58.55 276.93,-22.55 530.22,-22.55 530.22,-58.55"/>
<text text-anchor="middle" x="403.58" y="-36.35" font-family="Helvetica,sans-Serif" font-size="14.00">/thumbnails = map(images, thumbnail)</text>
</g>
<!-- &#45;&gt;/thumbnails = map(images, thumbnail) -->
<g id="edge9" class="edge">
<title>&#45;&gt;/thumbnails = map(images, thumbnail)</title>
<path fill="none" stroke="#999999" d="M4.28,-110.95C3.78,-99.33 4,-62.61 25,-46.75 115.47,21.57 255.99,0.42 337.67,-20.5"/>
<polygon fill="#999999" stroke="#999999" points="345.39,-22.52 337.28,-23.89 341.76,-21.57 338.14,-20.62 338.14,-20.62 338.14,-20.62 341.76,-21.57 338.99,-17.36 345.39,-22.52 345.39,-22.52"/>
<text text-anchor="middle" x="141.88" y="-51.75" font-family="Helvetica,sans-Serif" font-size="14.00">thumbnails = map(images, thumbnail)</text>
</g>
<!-- /images/image01.jpg -->
<g id="node4" class="node">
<title>/images/image01.jpg</title>
<polygon fill="none" stroke="#b3b3b3" points="787.85,-260.55 642.57,-260.55 642.57,-224.55 787.85,-224.55 787.85,-260.55"/>
<text text-anchor="middle" x="715.21" y="-238.35" font-family="Helvetica,sans-Serif" font-size="14.00">/images/image01.jpg</text>
</g>
<!-- /images&#45;&gt;/images/image01.jpg -->
<g id="edge3" class="edge">
<title>/images&#45;&gt;/images/image01.jpg</title>
<path fill="none" stroke="#999999" d="M407.34,-133.89C421.9,-130.57 490.66,-117.09 530.4,-147.55 548.15,-161.16 531.93,-179.41 548.4,-194.55 571.89,-216.15 604.52,-228.08 634.63,-234.66"/>
<polygon fill="#999999" stroke="#999999" points="642.22,-236.21 634.2,-238.01 638.55,-235.46 634.88,-234.71 634.88,-234.71 634.88,-234.71 638.55,-235.46 635.56,-231.4 642.22,-236.21 642.22,-236.21"/>
<text text-anchor="middle" x="586.52" y="-235.75" font-family="Helvetica,sans-Serif" font-size="14.00">image01.jpg</text>
</g>
<!-- /images/image02.jpg -->
<g id="node5" class="node">
<title>/images/image02.jpg</title>
<polygon fill="none" stroke="#b3b3b3" points="787.85,-206.55 642.57,-206.55 642.57,-170.55 787.85,-170.55 787.85,-206.55"/>
<text text-anchor="middle" x="715.21" y="-184.35" font-family="Helvetica,sans-Serif" font-size="14.00">/images/image02.jpg</text>
</g>
<!-- /images&#45;&gt;/images/image02.jpg -->
<g id="edge4" class="edge">
<title>/images&#45;&gt;/images/image02.jpg</title>
<path fill="none" stroke="#999999" d="M407.38,-134.52C421.1,-134.42 482.44,-134.76 530.4,-147.55 538.86,-149.81 540.05,-152.9 548.4,-155.55 576.02,-164.32 606.99,-171.23 634.63,-176.41"/>
<polygon fill="#999999" stroke="#999999" points="642.33,-177.83 634.34,-179.79 638.64,-177.15 634.95,-176.47 634.95,-176.47 634.95,-176.47 638.64,-177.15 635.56,-173.15 642.33,-177.83 642.33,-177.83"/>
<text text-anchor="middle" x="586.52" y="-177.75" font-family="Helvetica,sans-Serif" font-size="14.00">image02.jpg</text>
</g>
<!-- /images/image03.jpg -->
<g id="node6" class="node">
<title>/images/image03.jpg</title>
<polygon fill="none" stroke="#b3b3b3" points="787.85,-152.55 642.57,-152.55 642.57,-116.55 787.85,-116.55 787.85,-152.55"/>
<text text-anchor="middle" x="715.21" y="-130.35" font-family="Helvetica,sans-Serif" font-size="14.00">/images/image03.jpg</text>
</g>
<!-- /images&#45;&gt;/images/image03.jpg -->
<g id="edge5" class="edge">
<title>/images&#45;&gt;/images/image03.jpg</title>
<path fill="none" stroke="#999999" d="M407.25,-134.55C426.93,-134.55 550.82,-134.55 635.07,-134.55"/>
<polygon fill="#999999" stroke="#999999" points="642.58,-134.55 635.08,-137.92 638.83,-134.55 635.08,-134.55 635.08,-134.55 635.08,-134.55 638.83,-134.55 635.08,-131.17 642.58,-134.55 642.58,-134.55"/>
<text text-anchor="middle" x="586.52" y="-138.75" font-family="Helvetica,sans-Serif" font-size="14.00">image03.jpg</text>
</g>
<!-- /images/image04.jpg -->
<g id="node7" class="node">
<title>/images/image04.jpg</title>
<polygon fill="none" stroke="#b3b3b3" points="787.85,-98.55 642.57,-98.55 642.57,-62.55 787.85,-62.55 787.85,-98.55"/>
<text text-anchor="middle" x="715.21" y="-76.35" font-family="Helvetica,sans-Serif" font-size="14.00">/images/image04.jpg</text>
</g>
<!-- /images&#45;&gt;/images/image04.jpg -->
<g id="edge6" class="edge">
<title>/images&#45;&gt;/images/image04.jpg</title>
<path fill="none" stroke="#999999" d="M407.38,-134.57C421.08,-134.63 482.38,-134.11 530.4,-121.55 538.83,-119.34 540.08,-116.35 548.4,-113.75 576.06,-105.09 607.04,-98.18 634.67,-92.95"/>
<polygon fill="#999999" stroke="#999999" points="642.37,-91.51 635.62,-96.2 638.69,-92.2 635,-92.89 635,-92.89 635,-92.89 638.69,-92.2 634.38,-89.57 642.37,-91.51 642.37,-91.51"/>
<text text-anchor="middle" x="586.52" y="-117.75" font-family="Helvetica,sans-Serif" font-size="14.00">image04.jpg</text>
</g>
<!-- /images/image05.jpg -->
<g id="node8" class="node">
<title>/images/image05.jpg</title>
<polygon fill="none" stroke="#b3b3b3" points="787.85,-44.55 642.57,-44.55 642.57,-8.55 787.85,-8.55 787.85,-44.55"/>
<text text-anchor="middle" x="715.21" y="-22.35" font-family="Helvetica,sans-Serif" font-size="14.00">/images/image05.jpg</text>
</g>
<!-- /images&#45;&gt;/images/image05.jpg -->
<g id="edge7" class="edge">
<title>/images&#45;&gt;/images/image05.jpg</title>
<path fill="none" stroke="#999999" d="M407.34,-135.21C421.9,-138.52 490.64,-151.98 530.4,-121.55 548.09,-108 531.99,-89.83 548.4,-74.75 571.9,-53.15 604.54,-41.18 634.64,-34.57"/>
<polygon fill="#999999" stroke="#999999" points="642.24,-33 635.57,-37.82 638.56,-33.76 634.89,-34.51 634.89,-34.51 634.89,-34.51 638.56,-33.76 634.21,-31.21 642.24,-33 642.24,-33"/>
<text text-anchor="middle" x="586.52" y="-79.75" font-family="Helvetica,sans-Serif" font-size="14.00">image05.jpg</text>
</g>
</g>
</svg>

