<?xml version="1.0" encoding="UTF-8" standalone="no"?>
<!DOCTYPE svg PUBLIC "-//W3C//DTD SVG 1.1//EN"
 "http://www.w3.org/Graphics/SVG/1.1/DTD/svg11.dtd">
<!-- Generated by graphviz version 2.44.0 (20200518.1210)
 -->
<!-- Title: g Pages: 1 -->
<svg width="818pt" height="530pt"
 viewBox="0.00 0.00 818.34 530.00" xmlns="http://www.w3.org/2000/svg" xmlns:xlink="http://www.w3.org/1999/xlink">
<g id="graph0" class="graph" transform="scale(1 1) rotate(0) translate(4 526)">
<title>g</title>
<polygon fill="white" stroke="transparent" points="-4,4 -4,-526 814.34,-526 814.34,4 -4,4"/>
<g id="node1" class="node">
<title></title>
<ellipse fill="none" stroke="#666666" cx="3.5" cy="-322" rx="3.5" ry="3.5"/>
</g>
<!-- /gallery.html -->
<g id="node2" class="node">
<title>/gallery.html</title>
<polygon fill="none" stroke="#b3b3b3" points="449.52,-454 357.63,-454 357.63,-418 449.52,-418 449.52,-454"/>
<text text-anchor="middle" x="403.58" y="-431.8" font-family="Helvetica,sans-Serif" font-size="14.00">/gallery.html</text>
</g>
<!-- &#45;&gt;/gallery.html -->
<g id="edge1" class="edge">
<title>&#45;&gt;/gallery.html</title>
<path fill="none" stroke="#999999" d="M4.82,-325.44C6.25,-339.75 12.46,-394.32 25,-405 116.57,-482.96 269.96,-465.37 350.14,-448.95"/>
<polygon fill="#999999" stroke="#999999" points="357.67,-447.37 351.02,-452.21 354,-448.14 350.33,-448.91 350.33,-448.91 350.33,-448.91 354,-448.14 349.63,-445.61 357.67,-447.37 357.67,-447.37"/>
<text text-anchor="middle" x="141.88" y="-467.2" font-family="Helvetica,sans-Serif" font-size="14.00">gallery.html</text>
</g>
<!-- /gallery.html = this().hbs -->
<g id="node3" class="node">
<title>/gallery.html = this().hbs</title>
<polygon fill="none" stroke="#b3b3b3" points="486.03,-400 321.12,-400 321.12,-364 486.03,-364 486.03,-400"/>
<text text-anchor="middle" x="403.58" y="-377.8" font-family="Helvetica,sans-Serif" font-size="14.00">/gallery.html = this().hbs</text>
</g>
<!-- &#45;&gt;/gallery.html = this().hbs -->
<g id="edge2" class="edge">
<title>&#45;&gt;/gallery.html = this().hbs</title>
<path fill="none" stroke="#999999" d="M5.36,-325.05C7.44,-331.81 13.45,-348.03 25,-355 71.77,-383.23 217.03,-386.18 313.13,-384.78"/>
<polygon fill="#999999" stroke="#999999" points="320.83,-384.66 313.38,-388.15 317.08,-384.72 313.33,-384.78 313.33,-384.78 313.33,-384.78 317.08,-384.72 313.28,-381.4 320.83,-384.66 320.83,-384.66"/>
<text text-anchor="middle" x="141.88" y="-388.2" font-family="Helvetica,sans-Serif" font-size="14.00">gallery.html = this().hbs</text>
</g>
<!-- /images -->
<g id="node4" class="node">
<title>/images</title>
<ellipse fill="none" stroke="#666666" cx="403.58" cy="-342" rx="3.5" ry="3.5"/>
</g>
<!-- &#45;&gt;/images -->
<g id="edge3" class="edge">
<title>&#45;&gt;/images</title>
<path fill="none" stroke="#999999" d="M7.04,-322.13C37.53,-323.66 332.98,-338.5 392.25,-341.48"/>
<polygon fill="#999999" stroke="#999999" points="399.87,-341.86 392.21,-344.86 396.12,-341.68 392.38,-341.49 392.38,-341.49 392.38,-341.49 396.12,-341.68 392.55,-338.12 399.87,-341.86 399.87,-341.86"/>
<text text-anchor="middle" x="141.88" y="-338.2" font-family="Helvetica,sans-Serif" font-size="14.00">images</text>
</g>
<!-- /thumbnail.js -->
<g id="node10" class="node">
<title>/thumbnail.js</title>
<polygon fill="none" stroke="#b3b3b3" points="450.64,-320 356.51,-320 356.51,-284 450.64,-284 450.64,-320"/>
<text text-anchor="middle" x="403.58" y="-297.8" font-family="Helvetica,sans-Serif" font-size="14.00">/thumbnail.js</text>
</g>
<!-- &#45;&gt;/thumbnail.js -->
<g id="edge9" class="edge">
<title>&#45;&gt;/thumbnail.js</title>
<path fill="none" stroke="#999999" d="M6.05,-319.57C9.07,-315.12 16.19,-305.76 25,-302.2 133.11,-258.48 273.29,-275.43 348.77,-289.84"/>
<polygon fill="#999999" stroke="#999999" points="356.31,-291.31 348.3,-293.18 352.63,-290.59 348.95,-289.87 348.95,-289.87 348.95,-289.87 352.63,-290.59 349.6,-286.56 356.31,-291.31 356.31,-291.31"/>
<text text-anchor="middle" x="141.88" y="-306.2" font-family="Helvetica,sans-Serif" font-size="14.00">thumbnail.js</text>
</g>
<!-- /thumbnails -->
<g id="node11" class="node">
<title>/thumbnails</title>
<ellipse fill="none" stroke="#666666" cx="403.58" cy="-180" rx="3.5" ry="3.5"/>
</g>
<!-- &#45;&gt;/thumbnails -->
<g id="edge10" class="edge">
<title>&#45;&gt;/thumbnails</title>
<path fill="none" stroke="#999999" d="M4.38,-318.5C4.19,-307.15 5.24,-271.11 25,-253.2 136.55,-152.09 344.49,-172.3 392.5,-178.56"/>
<polygon fill="#999999" stroke="#999999" points="400.07,-179.61 392.17,-181.92 396.35,-179.1 392.64,-178.58 392.64,-178.58 392.64,-178.58 396.35,-179.1 393.1,-175.24 400.07,-179.61 400.07,-179.61"/>
<text text-anchor="middle" x="141.88" y="-257.2" font-family="Helvetica,sans-Serif" font-size="14.00">thumbnails</text>
</g>
<!-- /thumbnails = map(images, thumbnail) -->
<g id="node17" class="node">
<title>/thumbnails = map(images, thumbnail)</title>
<polygon fill="none" stroke="#b3b3b3" points="530.22,-158 276.93,-158 276.93,-122 530.22,-122 530.22,-158"/>
<text text-anchor="middle" x="403.58" y="-135.8" font-family="Helvetica,sans-Serif" font-size="14.00">/thumbnails = map(images, thumbnail)</text>
</g>
<!-- &#45;&gt;/thumbnails = map(images, thumbnail) -->
<g id="edge16" class="edge">
<title>&#45;&gt;/thumbnails = map(images, thumbnail)</title>
<path fill="none" stroke="#999999" d="M4.34,-318.44C3.43,-296.17 -0.23,-176.35 25,-153.2 109.8,-75.39 255.72,-98.04 339.15,-119.99"/>
<polygon fill="#999999" stroke="#999999" points="346.53,-121.97 338.41,-123.29 342.91,-121 339.28,-120.03 339.28,-120.03 339.28,-120.03 342.91,-121 340.16,-116.77 346.53,-121.97 346.53,-121.97"/>
<text text-anchor="middle" x="141.88" y="-157.2" font-family="Helvetica,sans-Serif" font-size="14.00">thumbnails = map(images, thumbnail)</text>
</g>
<!-- /images/image01.jpg -->
<g id="node5" class="node">
<title>/images/image01.jpg</title>
<polygon fill="none" stroke="#b3b3b3" points="799.13,-522 653.85,-522 653.85,-486 799.13,-486 799.13,-522"/>
<text text-anchor="middle" x="726.49" y="-499.8" font-family="Helvetica,sans-Serif" font-size="14.00">/images/image01.jpg</text>
</g>
<!-- /images&#45;&gt;/images/image01.jpg -->
<g id="edge4" class="edge">
<title>/images&#45;&gt;/images/image01.jpg</title>
<path fill="none" stroke="#999999" d="M407.06,-341.31C421.34,-337.5 493.48,-320.53 530.4,-355 564.68,-387.02 516.54,-424.57 548.4,-459 573.14,-485.73 611.31,-497.54 645.89,-502.43"/>
<polygon fill="#999999" stroke="#999999" points="653.66,-503.42 645.79,-505.82 649.94,-502.95 646.22,-502.47 646.22,-502.47 646.22,-502.47 649.94,-502.95 646.65,-499.12 653.66,-503.42 653.66,-503.42"/>
<text text-anchor="middle" x="586.52" y="-501.2" font-family="Helvetica,sans-Serif" font-size="14.00">image01.jpg</text>
</g>
<!-- /images/image02.jpg -->
<g id="node6" class="node">
<title>/images/image02.jpg</title>
<polygon fill="none" stroke="#b3b3b3" points="799.13,-468 653.85,-468 653.85,-432 799.13,-432 799.13,-468"/>
<text text-anchor="middle" x="726.49" y="-445.8" font-family="Helvetica,sans-Serif" font-size="14.00">/images/image02.jpg</text>
</g>
<!-- /images&#45;&gt;/images/image02.jpg -->
<g id="edge5" class="edge">
<title>/images&#45;&gt;/images/image02.jpg</title>
<path fill="none" stroke="#999999" d="M407.33,-341.34C421.88,-338.06 490.55,-324.68 530.4,-355 547.87,-368.29 532.1,-386.3 548.4,-401 575.05,-425.03 612.47,-437.41 646.05,-443.73"/>
<polygon fill="#999999" stroke="#999999" points="653.6,-445.06 645.63,-447.08 649.91,-444.41 646.22,-443.76 646.22,-443.76 646.22,-443.76 649.91,-444.41 646.8,-440.43 653.6,-445.06 653.6,-445.06"/>
<text text-anchor="middle" x="586.52" y="-442.2" font-family="Helvetica,sans-Serif" font-size="14.00">image02.jpg</text>
</g>
<!-- /images/image03.jpg -->
<g id="node7" class="node">
<title>/images/image03.jpg</title>
<polygon fill="none" stroke="#b3b3b3" points="799.13,-414 653.85,-414 653.85,-378 799.13,-378 799.13,-414"/>
<text text-anchor="middle" x="726.49" y="-391.8" font-family="Helvetica,sans-Serif" font-size="14.00">/images/image03.jpg</text>
</g>
<!-- /images&#45;&gt;/images/image03.jpg -->
<g id="edge6" class="edge">
<title>/images&#45;&gt;/images/image03.jpg</title>
<path fill="none" stroke="#999999" d="M407.38,-341.97C421.1,-341.87 482.44,-342.21 530.4,-355 538.86,-357.26 540.04,-360.4 548.4,-363 579.79,-372.75 615.25,-380.06 646.15,-385.28"/>
<polygon fill="#999999" stroke="#999999" points="653.9,-386.57 645.95,-388.67 650.2,-385.95 646.5,-385.34 646.5,-385.34 646.5,-385.34 650.2,-385.95 647.05,-382.01 653.9,-386.57 653.9,-386.57"/>
<text text-anchor="middle" x="586.52" y="-384.2" font-family="Helvetica,sans-Serif" font-size="14.00">image03.jpg</text>
</g>
<!-- /images/image04.jpg -->
<g id="node8" class="node">
<title>/images/image04.jpg</title>
<polygon fill="none" stroke="#b3b3b3" points="799.13,-360 653.85,-360 653.85,-324 799.13,-324 799.13,-360"/>
<text text-anchor="middle" x="726.49" y="-337.8" font-family="Helvetica,sans-Serif" font-size="14.00">/images/image04.jpg</text>
</g>
<!-- /images&#45;&gt;/images/image04.jpg -->
<g id="edge7" class="edge">
<title>/images&#45;&gt;/images/image04.jpg</title>
<path fill="none" stroke="#999999" d="M407.35,-342C427.98,-342 559.05,-342 646.39,-342"/>
<polygon fill="#999999" stroke="#999999" points="653.91,-342 646.41,-345.38 650.16,-342 646.41,-342 646.41,-342 646.41,-342 650.16,-342 646.41,-338.63 653.91,-342 653.91,-342"/>
<text text-anchor="middle" x="586.52" y="-346.2" font-family="Helvetica,sans-Serif" font-size="14.00">image04.jpg</text>
</g>
<!-- /images/image05.jpg -->
<g id="node9" class="node">
<title>/images/image05.jpg</title>
<polygon fill="none" stroke="#b3b3b3" points="799.13,-306 653.85,-306 653.85,-270 799.13,-270 799.13,-306"/>
<text text-anchor="middle" x="726.49" y="-283.8" font-family="Helvetica,sans-Serif" font-size="14.00">/images/image05.jpg</text>
</g>
<!-- /images&#45;&gt;/images/image05.jpg -->
<g id="edge8" class="edge">
<title>/images&#45;&gt;/images/image05.jpg</title>
<path fill="none" stroke="#999999" d="M407.38,-342.02C421.08,-342.08 482.38,-341.56 530.4,-329 538.83,-326.79 540.06,-323.75 548.4,-321.2 579.69,-311.62 614.99,-304.32 645.79,-299.05"/>
<polygon fill="#999999" stroke="#999999" points="653.52,-297.75 646.68,-302.32 649.82,-298.37 646.12,-298.99 646.12,-298.99 646.12,-298.99 649.82,-298.37 645.56,-295.66 653.52,-297.75 653.52,-297.75"/>
<text text-anchor="middle" x="586.52" y="-325.2" font-family="Helvetica,sans-Serif" font-size="14.00">image05.jpg</text>
</g>
<!-- /thumbnails/image01.jpg -->
<g id="node12" class="node">
<title>/thumbnails/image01.jpg</title>
<polygon fill="none" stroke="#b3b3b3" points="810.19,-252 642.79,-252 642.79,-216 810.19,-216 810.19,-252"/>
<text text-anchor="middle" x="726.49" y="-229.8" font-family="Helvetica,sans-Serif" font-size="14.00">/thumbnails/image01.jpg</text>
</g>
<!-- /thumbnails&#45;&gt;/thumbnails/image01.jpg -->
<g id="edge11" class="edge">
<title>/thumbnails&#45;&gt;/thumbnails/image01.jpg</title>
<path fill="none" stroke="#999999" d="M407.35,-180.47C427.11,-183.79 548.27,-204.18 635.21,-218.81"/>
<polygon fill="#999999" stroke="#999999" points="642.72,-220.07 634.76,-222.16 639.02,-219.45 635.32,-218.83 635.32,-218.83 635.32,-218.83 639.02,-219.45 635.88,-215.5 642.72,-220.07 642.72,-220.07"/>
<text text-anchor="middle" x="586.52" y="-220.2" font-family="Helvetica,sans-Serif" font-size="14.00">image01.jpg</text>
</g>
<!-- /thumbnails/image02.jpg -->
<g id="node13" class="node">
<title>/thumbnails/image02.jpg</title>
<polygon fill="none" stroke="#b3b3b3" points="810.19,-198 642.79,-198 642.79,-162 810.19,-162 810.19,-198"/>
<text text-anchor="middle" x="726.49" y="-175.8" font-family="Helvetica,sans-Serif" font-size="14.00">/thumbnails/image02.jpg</text>
</g>
<!-- /thumbnails&#45;&gt;/thumbnails/image02.jpg -->
<g id="edge12" class="edge">
<title>/thumbnails&#45;&gt;/thumbnails/image02.jpg</title>
<path fill="none" stroke="#999999" d="M407.35,-180C427.11,-180 548.27,-180 635.21,-180"/>
<polygon fill="#999999" stroke="#999999" points="642.72,-180 635.22,-183.38 638.97,-180 635.22,-180 635.22,-180 635.22,-180 638.97,-180 635.22,-176.63 642.72,-180 642.72,-180"/>
<text text-anchor="middle" x="586.52" y="-184.2" font-family="Helvetica,sans-Serif" font-size="14.00">image02.jpg</text>
</g>
<!-- /thumbnails/image03.jpg -->
<g id="node14" class="node">
<title>/thumbnails/image03.jpg</title>
<polygon fill="none" stroke="#b3b3b3" points="810.19,-144 642.79,-144 642.79,-108 810.19,-108 810.19,-144"/>
<text text-anchor="middle" x="726.49" y="-121.8" font-family="Helvetica,sans-Serif" font-size="14.00">/thumbnails/image03.jpg</text>
</g>
<!-- /thumbnails&#45;&gt;/thumbnails/image03.jpg -->
<g id="edge13" class="edge">
<title>/thumbnails&#45;&gt;/thumbnails/image03.jpg</title>
<path fill="none" stroke="#999999" d="M407.38,-180.02C421.08,-180.08 482.38,-179.56 530.4,-167 538.83,-164.79 540.06,-161.75 548.4,-159.2 576.13,-150.71 607,-144.01 635.1,-138.93"/>
<polygon fill="#999999" stroke="#999999" points="642.57,-137.6 635.77,-142.24 638.88,-138.26 635.18,-138.91 635.18,-138.91 635.18,-138.91 638.88,-138.26 634.59,-135.59 642.57,-137.6 642.57,-137.6"/>
<text text-anchor="middle" x="586.52" y="-163.2" font-family="Helvetica,sans-Serif" font-size="14.00">image03.jpg</text>
</g>
<!-- /thumbnails/image04.jpg -->
<g id="node15" class="node">
<title>/thumbnails/image04.jpg</title>
<polygon fill="none" stroke="#b3b3b3" points="810.19,-90 642.79,-90 642.79,-54 810.19,-54 810.19,-90"/>
<text text-anchor="middle" x="726.49" y="-67.8" font-family="Helvetica,sans-Serif" font-size="14.00">/thumbnails/image04.jpg</text>
</g>
<!-- /thumbnails&#45;&gt;/thumbnails/image04.jpg -->
<g id="edge14" class="edge">
<title>/thumbnails&#45;&gt;/thumbnails/image04.jpg</title>
<path fill="none" stroke="#999999" d="M407.34,-180.66C421.9,-183.97 490.64,-197.43 530.4,-167 548.09,-153.45 531.86,-135.14 548.4,-120.2 572.05,-98.84 604.25,-86.81 634.72,-80.08"/>
<polygon fill="#999999" stroke="#999999" points="642.42,-78.48 635.76,-83.31 638.74,-79.25 635.07,-80.01 635.07,-80.01 635.07,-80.01 638.74,-79.25 634.39,-76.7 642.42,-78.48 642.42,-78.48"/>
<text text-anchor="middle" x="586.52" y="-125.2" font-family="Helvetica,sans-Serif" font-size="14.00">image04.jpg</text>
</g>
<!-- /thumbnails/image05.jpg -->
<g id="node16" class="node">
<title>/thumbnails/image05.jpg</title>
<polygon fill="none" stroke="#b3b3b3" points="810.19,-36 642.79,-36 642.79,0 810.19,0 810.19,-36"/>
<text text-anchor="middle" x="726.49" y="-13.8" font-family="Helvetica,sans-Serif" font-size="14.00">/thumbnails/image05.jpg</text>
</g>
<!-- /thumbnails&#45;&gt;/thumbnails/image05.jpg -->
<g id="edge15" class="edge">
<title>/thumbnails&#45;&gt;/thumbnails/image05.jpg</title>
<path fill="none" stroke="#999999" d="M407.06,-180.69C421.34,-184.5 493.5,-201.5 530.4,-167 564.92,-134.72 516.25,-96.84 548.4,-62.2 570.55,-38.33 603.45,-26.5 634.91,-20.9"/>
<polygon fill="#999999" stroke="#999999" points="642.44,-19.66 635.58,-24.21 638.74,-20.27 635.04,-20.88 635.04,-20.88 635.04,-20.88 638.74,-20.27 634.49,-17.54 642.44,-19.66 642.44,-19.66"/>
<text text-anchor="middle" x="586.52" y="-67.2" font-family="Helvetica,sans-Serif" font-size="14.00">image05.jpg</text>
</g>
</g>
</svg>

