<?xml version="1.0" encoding="UTF-8" standalone="no"?>
<!DOCTYPE svg PUBLIC "-//W3C//DTD SVG 1.1//EN"
 "http://www.w3.org/Graphics/SVG/1.1/DTD/svg11.dtd">
<!-- Generated by graphviz version 2.44.0 (20200518.1210)
 -->
<!-- Title: g Pages: 1 -->
<svg width="478pt" height="530pt"
 viewBox="0.00 0.00 478.37 530.00" xmlns="http://www.w3.org/2000/svg" xmlns:xlink="http://www.w3.org/1999/xlink">
<g id="graph0" class="graph" transform="scale(1 1) rotate(0) translate(4 526)">
<title>g</title>
<polygon fill="white" stroke="transparent" points="-4,4 -4,-526 474.37,-526 474.37,4 -4,4"/>
<g id="node1" class="node">
<title></title>
<ellipse fill="none" stroke="#666666" cx="3.5" cy="-369" rx="3.5" ry="3.5"/>
</g>
<!-- /gallery.html -->
<g id="node2" class="node">
<title>/gallery.html</title>
<polygon fill="none" stroke="#b3b3b3" points="206.22,-427 114.33,-427 114.33,-391 206.22,-391 206.22,-427"/>
<text text-anchor="middle" x="160.27" y="-404.8" font-family="Helvetica,sans-Serif" font-size="14.00">/gallery.html</text>
</g>
<!-- &#45;&gt;/gallery.html -->
<g id="edge1" class="edge">
<title>&#45;&gt;/gallery.html</title>
<path fill="none" stroke="#999999" d="M6.37,-371.33C9.67,-375.27 16.95,-383.2 25,-387 50.36,-398.98 81.07,-404.58 106.72,-407.14"/>
<polygon fill="#999999" stroke="#999999" points="114.51,-407.84 106.74,-410.53 110.77,-407.51 107.04,-407.17 107.04,-407.17 107.04,-407.17 110.77,-407.51 107.34,-403.81 114.51,-407.84 114.51,-407.84"/>
<text text-anchor="middle" x="60.78" y="-409.2" font-family="Helvetica,sans-Serif" font-size="14.00">gallery.html</text>
</g>
<!-- /images -->
<g id="node3" class="node">
<title>/images</title>
<ellipse fill="none" stroke="#666666" cx="160.27" cy="-369" rx="3.5" ry="3.5"/>
</g>
<!-- &#45;&gt;/images -->
<g id="edge2" class="edge">
<title>&#45;&gt;/images</title>
<path fill="none" stroke="#999999" d="M7.19,-369C24.21,-369 117.39,-369 148.88,-369"/>
<polygon fill="#999999" stroke="#999999" points="156.51,-369 149.01,-372.38 152.76,-369 149.01,-369 149.01,-369 149.01,-369 152.76,-369 149.01,-365.63 156.51,-369 156.51,-369"/>
<text text-anchor="middle" x="60.78" y="-373.2" font-family="Helvetica,sans-Serif" font-size="14.00">images</text>
</g>
<!-- /thumbnails -->
<g id="node9" class="node">
<title>/thumbnails</title>
<ellipse fill="none" stroke="#666666" cx="160.27" cy="-153" rx="3.5" ry="3.5"/>
</g>
<!-- &#45;&gt;/thumbnails -->
<g id="edge8" class="edge">
<title>&#45;&gt;/thumbnails</title>
<path fill="none" stroke="#999999" d="M6.24,-366.57C21.06,-345.89 126.3,-199.01 153.09,-161.64"/>
<polygon fill="#999999" stroke="#999999" points="157.55,-155.41 155.92,-163.47 155.37,-158.46 153.18,-161.5 153.18,-161.5 153.18,-161.5 155.37,-158.46 150.44,-159.54 157.55,-155.41 157.55,-155.41"/>
<text text-anchor="middle" x="60.78" y="-341.2" font-family="Helvetica,sans-Serif" font-size="14.00">thumbnails</text>
</g>
<!-- /images/image1.jpg -->
<g id="node4" class="node">
<title>/images/image1.jpg</title>
<polygon fill="none" stroke="#b3b3b3" points="459.27,-522 321.56,-522 321.56,-486 459.27,-486 459.27,-522"/>
<text text-anchor="middle" x="390.42" y="-499.8" font-family="Helvetica,sans-Serif" font-size="14.00">/images/image1.jpg</text>
</g>
<!-- /images&#45;&gt;/images/image1.jpg -->
<g id="edge3" class="edge">
<title>/images&#45;&gt;/images/image1.jpg</title>
<path fill="none" stroke="#999999" d="M164.17,-368.92C172.11,-368.87 194.35,-369.87 206,-382 229.13,-406.11 200.92,-430.83 224,-455 247.36,-479.47 282.3,-491.88 314.07,-498.12"/>
<polygon fill="#999999" stroke="#999999" points="321.64,-499.5 313.65,-501.47 317.95,-498.83 314.26,-498.15 314.26,-498.15 314.26,-498.15 317.95,-498.83 314.87,-494.83 321.64,-499.5 321.64,-499.5"/>
<text text-anchor="middle" x="258.23" y="-496.2" font-family="Helvetica,sans-Serif" font-size="14.00">image1.jpg</text>
</g>
<!-- /images/image2.jpg -->
<g id="node5" class="node">
<title>/images/image2.jpg</title>
<polygon fill="none" stroke="#b3b3b3" points="459.27,-468 321.56,-468 321.56,-432 459.27,-432 459.27,-468"/>
<text text-anchor="middle" x="390.42" y="-445.8" font-family="Helvetica,sans-Serif" font-size="14.00">/images/image2.jpg</text>
</g>
<!-- /images&#45;&gt;/images/image2.jpg -->
<g id="edge4" class="edge">
<title>/images&#45;&gt;/images/image2.jpg</title>
<path fill="none" stroke="#999999" d="M163.93,-369.21C171.25,-369.88 192.07,-372.58 206,-382 216.75,-389.27 213.18,-397.82 224,-405 250.74,-422.76 284.31,-433.54 314.21,-440.07"/>
<polygon fill="#999999" stroke="#999999" points="321.73,-441.64 313.69,-443.41 318.06,-440.88 314.39,-440.11 314.39,-440.11 314.39,-440.11 318.06,-440.88 315.08,-436.81 321.73,-441.64 321.73,-441.64"/>
<text text-anchor="middle" x="258.23" y="-438.2" font-family="Helvetica,sans-Serif" font-size="14.00">image2.jpg</text>
</g>
<!-- /images/image3.jpg -->
<g id="node6" class="node">
<title>/images/image3.jpg</title>
<polygon fill="none" stroke="#b3b3b3" points="459.27,-414 321.56,-414 321.56,-378 459.27,-378 459.27,-414"/>
<text text-anchor="middle" x="390.42" y="-391.8" font-family="Helvetica,sans-Serif" font-size="14.00">/images/image3.jpg</text>
</g>
<!-- /images&#45;&gt;/images/image3.jpg -->
<g id="edge5" class="edge">
<title>/images&#45;&gt;/images/image3.jpg</title>
<path fill="none" stroke="#999999" d="M163.84,-369.3C178.6,-371.05 254.25,-380 313.92,-387.07"/>
<polygon fill="#999999" stroke="#999999" points="321.49,-387.96 313.64,-390.43 317.76,-387.52 314.04,-387.08 314.04,-387.08 314.04,-387.08 317.76,-387.52 314.44,-383.73 321.49,-387.96 321.49,-387.96"/>
<text text-anchor="middle" x="258.23" y="-388.2" font-family="Helvetica,sans-Serif" font-size="14.00">image3.jpg</text>
</g>
<!-- /images/image4.jpg -->
<g id="node7" class="node">
<title>/images/image4.jpg</title>
<polygon fill="none" stroke="#b3b3b3" points="459.27,-360 321.56,-360 321.56,-324 459.27,-324 459.27,-360"/>
<text text-anchor="middle" x="390.42" y="-337.8" font-family="Helvetica,sans-Serif" font-size="14.00">/images/image4.jpg</text>
</g>
<!-- /images&#45;&gt;/images/image4.jpg -->
<g id="edge6" class="edge">
<title>/images&#45;&gt;/images/image4.jpg</title>
<path fill="none" stroke="#999999" d="M164.12,-368.23C172.95,-365.86 200.62,-358.69 224,-355.2 253.29,-350.83 285.74,-347.84 314.08,-345.83"/>
<polygon fill="#999999" stroke="#999999" points="321.57,-345.31 314.32,-349.19 317.83,-345.57 314.09,-345.83 314.09,-345.83 314.09,-345.83 317.83,-345.57 313.86,-342.46 321.57,-345.31 321.57,-345.31"/>
<text text-anchor="middle" x="258.23" y="-359.2" font-family="Helvetica,sans-Serif" font-size="14.00">image4.jpg</text>
</g>
<!-- /images/image5.jpg -->
<g id="node8" class="node">
<title>/images/image5.jpg</title>
<polygon fill="none" stroke="#b3b3b3" points="459.27,-306 321.56,-306 321.56,-270 459.27,-270 459.27,-306"/>
<text text-anchor="middle" x="390.42" y="-283.8" font-family="Helvetica,sans-Serif" font-size="14.00">/images/image5.jpg</text>
</g>
<!-- /images&#45;&gt;/images/image5.jpg -->
<g id="edge7" class="edge">
<title>/images&#45;&gt;/images/image5.jpg</title>
<path fill="none" stroke="#999999" d="M163.48,-367.03C171.19,-360.24 197.91,-337.63 224,-326.2 252.25,-313.82 285.04,-305.18 313.95,-299.29"/>
<polygon fill="#999999" stroke="#999999" points="321.6,-297.78 314.9,-302.54 317.92,-298.5 314.24,-299.23 314.24,-299.23 314.24,-299.23 317.92,-298.5 313.59,-295.92 321.6,-297.78 321.6,-297.78"/>
<text text-anchor="middle" x="258.23" y="-330.2" font-family="Helvetica,sans-Serif" font-size="14.00">image5.jpg</text>
</g>
<!-- /thumbnails/image1.jpg -->
<g id="node10" class="node">
<title>/thumbnails/image1.jpg</title>
<polygon fill="none" stroke="#b3b3b3" points="470.33,-252 310.5,-252 310.5,-216 470.33,-216 470.33,-252"/>
<text text-anchor="middle" x="390.42" y="-229.8" font-family="Helvetica,sans-Serif" font-size="14.00">/thumbnails/image1.jpg</text>
</g>
<!-- /thumbnails&#45;&gt;/thumbnails/image1.jpg -->
<g id="edge9" class="edge">
<title>/thumbnails&#45;&gt;/thumbnails/image1.jpg</title>
<path fill="none" stroke="#999999" d="M163.55,-154.6C171.52,-160.12 198.95,-178.61 224,-189 248.89,-199.33 276.87,-207.98 302.64,-214.85"/>
<polygon fill="#999999" stroke="#999999" points="310.2,-216.83 302.09,-218.2 306.58,-215.88 302.95,-214.93 302.95,-214.93 302.95,-214.93 306.58,-215.88 303.81,-211.67 310.2,-216.83 310.2,-216.83"/>
<text text-anchor="middle" x="258.23" y="-215.2" font-family="Helvetica,sans-Serif" font-size="14.00">image1.jpg</text>
</g>
<!-- /thumbnails/image2.jpg -->
<g id="node11" class="node">
<title>/thumbnails/image2.jpg</title>
<polygon fill="none" stroke="#b3b3b3" points="470.33,-198 310.5,-198 310.5,-162 470.33,-162 470.33,-198"/>
<text text-anchor="middle" x="390.42" y="-175.8" font-family="Helvetica,sans-Serif" font-size="14.00">/thumbnails/image2.jpg</text>
</g>
<!-- /thumbnails&#45;&gt;/thumbnails/image2.jpg -->
<g id="edge10" class="edge">
<title>/thumbnails&#45;&gt;/thumbnails/image2.jpg</title>
<path fill="none" stroke="#999999" d="M163.84,-153.3C177.68,-154.94 245.05,-162.92 302.6,-169.73"/>
<polygon fill="#999999" stroke="#999999" points="310.28,-170.63 302.44,-173.1 306.56,-170.19 302.83,-169.75 302.83,-169.75 302.83,-169.75 306.56,-170.19 303.23,-166.4 310.28,-170.63 310.28,-170.63"/>
<text text-anchor="middle" x="258.23" y="-172.2" font-family="Helvetica,sans-Serif" font-size="14.00">image2.jpg</text>
</g>
<!-- /thumbnails/image3.jpg -->
<g id="node12" class="node">
<title>/thumbnails/image3.jpg</title>
<polygon fill="none" stroke="#b3b3b3" points="470.33,-144 310.5,-144 310.5,-108 470.33,-108 470.33,-144"/>
<text text-anchor="middle" x="390.42" y="-121.8" font-family="Helvetica,sans-Serif" font-size="14.00">/thumbnails/image3.jpg</text>
</g>
<!-- /thumbnails&#45;&gt;/thumbnails/image3.jpg -->
<g id="edge11" class="edge">
<title>/thumbnails&#45;&gt;/thumbnails/image3.jpg</title>
<path fill="none" stroke="#999999" d="M164.12,-152.23C172.95,-149.86 200.62,-142.69 224,-139.2 249.54,-135.39 277.48,-132.63 303.01,-130.65"/>
<polygon fill="#999999" stroke="#999999" points="310.49,-130.09 303.26,-134.01 306.75,-130.37 303.01,-130.65 303.01,-130.65 303.01,-130.65 306.75,-130.37 302.76,-127.28 310.49,-130.09 310.49,-130.09"/>
<text text-anchor="middle" x="258.23" y="-143.2" font-family="Helvetica,sans-Serif" font-size="14.00">image3.jpg</text>
</g>
<!-- /thumbnails/image4.jpg -->
<g id="node13" class="node">
<title>/thumbnails/image4.jpg</title>
<polygon fill="none" stroke="#b3b3b3" points="470.33,-90 310.5,-90 310.5,-54 470.33,-54 470.33,-90"/>
<text text-anchor="middle" x="390.42" y="-67.8" font-family="Helvetica,sans-Serif" font-size="14.00">/thumbnails/image4.jpg</text>
</g>
<!-- /thumbnails&#45;&gt;/thumbnails/image4.jpg -->
<g id="edge12" class="edge">
<title>/thumbnails&#45;&gt;/thumbnails/image4.jpg</title>
<path fill="none" stroke="#999999" d="M163.48,-151.03C171.19,-144.24 197.91,-121.63 224,-110.2 248.69,-99.38 276.86,-91.42 302.86,-85.65"/>
<polygon fill="#999999" stroke="#999999" points="310.49,-84 303.87,-88.88 306.83,-84.79 303.16,-85.58 303.16,-85.58 303.16,-85.58 306.83,-84.79 302.45,-82.29 310.49,-84 310.49,-84"/>
<text text-anchor="middle" x="258.23" y="-114.2" font-family="Helvetica,sans-Serif" font-size="14.00">image4.jpg</text>
</g>
<!-- /thumbnails/image5.jpg -->
<g id="node14" class="node">
<title>/thumbnails/image5.jpg</title>
<polygon fill="none" stroke="#b3b3b3" points="470.33,-36 310.5,-36 310.5,0 470.33,0 470.33,-36"/>
<text text-anchor="middle" x="390.42" y="-13.8" font-family="Helvetica,sans-Serif" font-size="14.00">/thumbnails/image5.jpg</text>
</g>
<!-- /thumbnails&#45;&gt;/thumbnails/image5.jpg -->
<g id="edge13" class="edge">
<title>/thumbnails&#45;&gt;/thumbnails/image5.jpg</title>
<path fill="none" stroke="#999999" d="M162.53,-150.11C167.94,-137.99 190.52,-90.81 224,-67.2 247.16,-50.86 275.79,-39.88 302.69,-32.53"/>
<polygon fill="#999999" stroke="#999999" points="310.23,-30.55 303.83,-35.72 306.6,-31.5 302.97,-32.45 302.97,-32.45 302.97,-32.45 306.6,-31.5 302.11,-29.19 310.23,-30.55 310.23,-30.55"/>
<text text-anchor="middle" x="258.23" y="-71.2" font-family="Helvetica,sans-Serif" font-size="14.00">image5.jpg</text>
</g>
</g>
</svg>

