<?xml version="1.0" encoding="UTF-8" standalone="no"?>
<!DOCTYPE svg PUBLIC "-//W3C//DTD SVG 1.1//EN"
 "http://www.w3.org/Graphics/SVG/1.1/DTD/svg11.dtd">
<!-- Generated by graphviz version 2.44.0 (20200518.1210)
 -->
<!-- Title: g Pages: 1 -->
<svg width="803pt" height="530pt"
 viewBox="0.00 0.00 802.78 530.00" xmlns="http://www.w3.org/2000/svg" xmlns:xlink="http://www.w3.org/1999/xlink">
<g id="graph0" class="graph" transform="scale(1 1) rotate(0) translate(4 526)">
<title>g</title>
<polygon fill="white" stroke="transparent" points="-4,4 -4,-526 798.78,-526 798.78,4 -4,4"/>
<g id="node1" class="node">
<title></title>
<ellipse fill="none" stroke="#666666" cx="3.5" cy="-322" rx="3.5" ry="3.5"/>
</g>
<!-- /gallery.html -->
<g id="node2" class="node">
<title>/gallery.html</title>
<polygon fill="none" stroke="#b3b3b3" points="449.52,-454 357.63,-454 357.63,-418 449.52,-418 449.52,-454"/>
<text text-anchor="middle" x="403.58" y="-431.8" font-family="Helvetica,sans-Serif" font-size="14.00">/gallery.html</text>
</g>
<!-- &#45;&gt;/gallery.html -->
<g id="edge1" class="edge">
<title>&#45;&gt;/gallery.html</title>
<path fill="none" stroke="#999999" d="M4.82,-325.44C6.25,-339.75 12.46,-394.32 25,-405 116.57,-482.96 269.96,-465.37 350.14,-448.95"/>
<polygon fill="#999999" stroke="#999999" points="357.67,-447.37 351.02,-452.21 354,-448.14 350.33,-448.91 350.33,-448.91 350.33,-448.91 354,-448.14 349.63,-445.61 357.67,-447.37 357.67,-447.37"/>
<text text-anchor="middle" x="141.88" y="-467.2" font-family="Helvetica,sans-Serif" font-size="14.00">gallery.html</text>
</g>
<!-- /gallery.html = this().hbs -->
<g id="node3" class="node">
<title>/gallery.html = this().hbs</title>
<polygon fill="none" stroke="#b3b3b3" points="486.03,-400 321.12,-400 321.12,-364 486.03,-364 486.03,-400"/>
<text text-anchor="middle" x="403.58" y="-377.8" font-family="Helvetica,sans-Serif" font-size="14.00">/gallery.html = this().hbs</text>
</g>
<!-- &#45;&gt;/gallery.html = this().hbs -->
<g id="edge2" class="edge">
<title>&#45;&gt;/gallery.html = this().hbs</title>
<path fill="none" stroke="#999999" d="M5.36,-325.05C7.44,-331.81 13.45,-348.03 25,-355 71.77,-383.23 217.03,-386.18 313.13,-384.78"/>
<polygon fill="#999999" stroke="#999999" points="320.83,-384.66 313.38,-388.15 317.08,-384.72 313.33,-384.78 313.33,-384.78 313.33,-384.78 317.08,-384.72 313.28,-381.4 320.83,-384.66 320.83,-384.66"/>
<text text-anchor="middle" x="141.88" y="-388.2" font-family="Helvetica,sans-Serif" font-size="14.00">gallery.html = this().hbs</text>
</g>
<!-- /images -->
<g id="node4" class="node">
<title>/images</title>
<ellipse fill="none" stroke="#666666" cx="403.58" cy="-342" rx="3.5" ry="3.5"/>
</g>
<!-- &#45;&gt;/images -->
<g id="edge3" class="edge">
<title>&#45;&gt;/images</title>
<path fill="none" stroke="#999999" d="M7.04,-322.13C37.53,-323.66 332.98,-338.5 392.25,-341.48"/>
<polygon fill="#999999" stroke="#999999" points="399.87,-341.86 392.21,-344.86 396.12,-341.68 392.38,-341.49 392.38,-341.49 392.38,-341.49 396.12,-341.68 392.55,-338.12 399.87,-341.86 399.87,-341.86"/>
<text text-anchor="middle" x="141.88" y="-338.2" font-family="Helvetica,sans-Serif" font-size="14.00">images</text>
</g>
<!-- /thumbnail.js -->
<g id="node10" class="node">
<title>/thumbnail.js</title>
<polygon fill="none" stroke="#b3b3b3" points="450.64,-320 356.51,-320 356.51,-284 450.64,-284 450.64,-320"/>
<text text-anchor="middle" x="403.58" y="-297.8" font-family="Helvetica,sans-Serif" font-size="14.00">/thumbnail.js</text>
</g>
<!-- &#45;&gt;/thumbnail.js -->
<g id="edge9" class="edge">
<title>&#45;&gt;/thumbnail.js</title>
<path fill="none" stroke="#999999" d="M6.05,-319.57C9.07,-315.12 16.19,-305.76 25,-302.2 133.11,-258.48 273.29,-275.43 348.77,-289.84"/>
<polygon fill="#999999" stroke="#999999" points="356.31,-291.31 348.3,-293.18 352.63,-290.59 348.95,-289.87 348.95,-289.87 348.95,-289.87 352.63,-290.59 349.6,-286.56 356.31,-291.31 356.31,-291.31"/>
<text text-anchor="middle" x="141.88" y="-306.2" font-family="Helvetica,sans-Serif" font-size="14.00">thumbnail.js</text>
</g>
<!-- /thumbnails -->
<g id="node11" class="node">
<title>/thumbnails</title>
<ellipse fill="none" stroke="#666666" cx="403.58" cy="-180" rx="3.5" ry="3.5"/>
</g>
<!-- &#45;&gt;/thumbnails -->
<g id="edge10" class="edge">
<title>&#45;&gt;/thumbnails</title>
<path fill="none" stroke="#999999" d="M4.38,-318.5C4.19,-307.15 5.24,-271.11 25,-253.2 136.55,-152.09 344.49,-172.3 392.5,-178.56"/>
<polygon fill="#999999" stroke="#999999" points="400.07,-179.61 392.17,-181.92 396.35,-179.1 392.64,-178.58 392.64,-178.58 392.64,-178.58 396.35,-179.1 393.1,-175.24 400.07,-179.61 400.07,-179.61"/>
<text text-anchor="middle" x="141.88" y="-257.2" font-family="Helvetica,sans-Serif" font-size="14.00">thumbnails</text>
</g>
<!-- /thumbnails = map(images, thumbnail) -->
<g id="node17" class="node">
<title>/thumbnails = map(images, thumbnail)</title>
<polygon fill="none" stroke="#b3b3b3" points="530.22,-158 276.93,-158 276.93,-122 530.22,-122 530.22,-158"/>
<text text-anchor="middle" x="403.58" y="-135.8" font-family="Helvetica,sans-Serif" font-size="14.00">/thumbnails = map(images, thumbnail)</text>
</g>
<!-- &#45;&gt;/thumbnails = map(images, thumbnail) -->
<g id="edge16" class="edge">
<title>&#45;&gt;/thumbnails = map(images, thumbnail)</title>
<path fill="none" stroke="#999999" d="M4.34,-318.44C3.43,-296.17 -0.23,-176.35 25,-153.2 109.8,-75.39 255.72,-98.04 339.15,-119.99"/>
<polygon fill="#999999" stroke="#999999" points="346.53,-121.97 338.41,-123.29 342.91,-121 339.28,-120.03 339.28,-120.03 339.28,-120.03 342.91,-121 340.16,-116.77 346.53,-121.97 346.53,-121.97"/>
<text text-anchor="middle" x="141.88" y="-157.2" font-family="Helvetica,sans-Serif" font-size="14.00">thumbnails = map(images, thumbnail)</text>
</g>
<!-- /images/image1.jpg -->
<g id="node5" class="node">
<title>/images/image1.jpg</title>
<polygon fill="none" stroke="#b3b3b3" points="783.67,-522 645.96,-522 645.96,-486 783.67,-486 783.67,-522"/>
<text text-anchor="middle" x="714.82" y="-499.8" font-family="Helvetica,sans-Serif" font-size="14.00">/images/image1.jpg</text>
</g>
<!-- /images&#45;&gt;/images/image1.jpg -->
<g id="edge4" class="edge">
<title>/images&#45;&gt;/images/image1.jpg</title>
<path fill="none" stroke="#999999" d="M407.06,-341.31C421.32,-337.52 493.4,-320.62 530.4,-355 563.8,-386.04 517.91,-422.1 548.4,-456 571.07,-481.22 606.12,-493.51 638.13,-499.38"/>
<polygon fill="#999999" stroke="#999999" points="645.76,-500.68 637.8,-502.75 642.07,-500.05 638.37,-499.42 638.37,-499.42 638.37,-499.42 642.07,-500.05 638.93,-496.1 645.76,-500.68 645.76,-500.68"/>
<text text-anchor="middle" x="582.63" y="-498.2" font-family="Helvetica,sans-Serif" font-size="14.00">image1.jpg</text>
</g>
<!-- /images/image2.jpg -->
<g id="node6" class="node">
<title>/images/image2.jpg</title>
<polygon fill="none" stroke="#b3b3b3" points="783.67,-468 645.96,-468 645.96,-432 783.67,-432 783.67,-468"/>
<text text-anchor="middle" x="714.82" y="-445.8" font-family="Helvetica,sans-Serif" font-size="14.00">/images/image2.jpg</text>
</g>
<!-- /images&#45;&gt;/images/image2.jpg -->
<g id="edge5" class="edge">
<title>/images&#45;&gt;/images/image2.jpg</title>
<path fill="none" stroke="#999999" d="M407.33,-341.34C421.88,-338.06 490.55,-324.68 530.4,-355 547.87,-368.29 532.23,-386.15 548.4,-401 572.91,-423.51 607.29,-435.71 638.37,-442.31"/>
<polygon fill="#999999" stroke="#999999" points="645.78,-443.79 637.76,-445.63 642.1,-443.05 638.42,-442.32 638.42,-442.32 638.42,-442.32 642.1,-443.05 639.09,-439.01 645.78,-443.79 645.78,-443.79"/>
<text text-anchor="middle" x="582.63" y="-439.2" font-family="Helvetica,sans-Serif" font-size="14.00">image2.jpg</text>
</g>
<!-- /images/image3.jpg -->
<g id="node7" class="node">
<title>/images/image3.jpg</title>
<polygon fill="none" stroke="#b3b3b3" points="783.67,-414 645.96,-414 645.96,-378 783.67,-378 783.67,-414"/>
<text text-anchor="middle" x="714.82" y="-391.8" font-family="Helvetica,sans-Serif" font-size="14.00">/images/image3.jpg</text>
</g>
<!-- /images&#45;&gt;/images/image3.jpg -->
<g id="edge6" class="edge">
<title>/images&#45;&gt;/images/image3.jpg</title>
<path fill="none" stroke="#999999" d="M407.38,-341.97C421.1,-341.87 482.44,-342.21 530.4,-355 538.86,-357.26 540.05,-360.35 548.4,-363 577.22,-372.16 609.71,-379.29 638.21,-384.55"/>
<polygon fill="#999999" stroke="#999999" points="645.76,-385.92 637.77,-387.9 642.07,-385.25 638.38,-384.58 638.38,-384.58 638.38,-384.58 642.07,-385.25 638.98,-381.26 645.76,-385.92 645.76,-385.92"/>
<text text-anchor="middle" x="582.63" y="-384.2" font-family="Helvetica,sans-Serif" font-size="14.00">image3.jpg</text>
</g>
<!-- /images/image4.jpg -->
<g id="node8" class="node">
<title>/images/image4.jpg</title>
<polygon fill="none" stroke="#b3b3b3" points="783.67,-360 645.96,-360 645.96,-324 783.67,-324 783.67,-360"/>
<text text-anchor="middle" x="714.82" y="-337.8" font-family="Helvetica,sans-Serif" font-size="14.00">/images/image4.jpg</text>
</g>
<!-- /images&#45;&gt;/images/image4.jpg -->
<g id="edge7" class="edge">
<title>/images&#45;&gt;/images/image4.jpg</title>
<path fill="none" stroke="#999999" d="M407.25,-342C427.17,-342 554.01,-342 638.18,-342"/>
<polygon fill="#999999" stroke="#999999" points="645.93,-342 638.43,-345.38 642.18,-342 638.43,-342 638.43,-342 638.43,-342 642.18,-342 638.43,-338.63 645.93,-342 645.93,-342"/>
<text text-anchor="middle" x="582.63" y="-346.2" font-family="Helvetica,sans-Serif" font-size="14.00">image4.jpg</text>
</g>
<!-- /images/image5.jpg -->
<g id="node9" class="node">
<title>/images/image5.jpg</title>
<polygon fill="none" stroke="#b3b3b3" points="783.67,-306 645.96,-306 645.96,-270 783.67,-270 783.67,-306"/>
<text text-anchor="middle" x="714.82" y="-283.8" font-family="Helvetica,sans-Serif" font-size="14.00">/images/image5.jpg</text>
</g>
<!-- /images&#45;&gt;/images/image5.jpg -->
<g id="edge8" class="edge">
<title>/images&#45;&gt;/images/image5.jpg</title>
<path fill="none" stroke="#999999" d="M407.38,-342.02C421.08,-342.08 482.38,-341.56 530.4,-329 538.83,-326.79 540.08,-323.81 548.4,-321.2 577.27,-312.16 609.76,-305.01 638.26,-299.7"/>
<polygon fill="#999999" stroke="#999999" points="645.8,-298.32 639.03,-302.99 642.11,-298.99 638.42,-299.67 638.42,-299.67 638.42,-299.67 642.11,-298.99 637.82,-296.35 645.8,-298.32 645.8,-298.32"/>
<text text-anchor="middle" x="582.63" y="-325.2" font-family="Helvetica,sans-Serif" font-size="14.00">image5.jpg</text>
</g>
<!-- /thumbnails/image1.jpg -->
<g id="node12" class="node">
<title>/thumbnails/image1.jpg</title>
<polygon fill="none" stroke="#b3b3b3" points="794.74,-252 634.9,-252 634.9,-216 794.74,-216 794.74,-252"/>
<text text-anchor="middle" x="714.82" y="-229.8" font-family="Helvetica,sans-Serif" font-size="14.00">/thumbnails/image1.jpg</text>
</g>
<!-- /thumbnails&#45;&gt;/thumbnails/image1.jpg -->
<g id="edge11" class="edge">
<title>/thumbnails&#45;&gt;/thumbnails/image1.jpg</title>
<path fill="none" stroke="#999999" d="M407.25,-180.47C426.33,-183.8 543.51,-204.26 627.32,-218.9"/>
<polygon fill="#999999" stroke="#999999" points="634.81,-220.2 626.84,-222.24 631.12,-219.56 627.43,-218.91 627.43,-218.91 627.43,-218.91 631.12,-219.56 628.01,-215.59 634.81,-220.2 634.81,-220.2"/>
<text text-anchor="middle" x="582.63" y="-220.2" font-family="Helvetica,sans-Serif" font-size="14.00">image1.jpg</text>
</g>
<!-- /thumbnails/image2.jpg -->
<g id="node13" class="node">
<title>/thumbnails/image2.jpg</title>
<polygon fill="none" stroke="#b3b3b3" points="794.74,-198 634.9,-198 634.9,-162 794.74,-162 794.74,-198"/>
<text text-anchor="middle" x="714.82" y="-175.8" font-family="Helvetica,sans-Serif" font-size="14.00">/thumbnails/image2.jpg</text>
</g>
<!-- /thumbnails&#45;&gt;/thumbnails/image2.jpg -->
<g id="edge12" class="edge">
<title>/thumbnails&#45;&gt;/thumbnails/image2.jpg</title>
<path fill="none" stroke="#999999" d="M407.25,-180C426.31,-180 543.28,-180 627.07,-180"/>
<polygon fill="#999999" stroke="#999999" points="634.81,-180 627.31,-183.38 631.06,-180 627.31,-180 627.31,-180 627.31,-180 631.06,-180 627.31,-176.63 634.81,-180 634.81,-180"/>
<text text-anchor="middle" x="582.63" y="-184.2" font-family="Helvetica,sans-Serif" font-size="14.00">image2.jpg</text>
</g>
<!-- /thumbnails/image3.jpg -->
<g id="node14" class="node">
<title>/thumbnails/image3.jpg</title>
<polygon fill="none" stroke="#b3b3b3" points="794.74,-144 634.9,-144 634.9,-108 794.74,-108 794.74,-144"/>
<text text-anchor="middle" x="714.82" y="-121.8" font-family="Helvetica,sans-Serif" font-size="14.00">/thumbnails/image3.jpg</text>
</g>
<!-- /thumbnails&#45;&gt;/thumbnails/image3.jpg -->
<g id="edge13" class="edge">
<title>/thumbnails&#45;&gt;/thumbnails/image3.jpg</title>
<path fill="none" stroke="#999999" d="M407.38,-180.02C421.08,-180.08 482.38,-179.56 530.4,-167 538.83,-164.79 540.08,-161.81 548.4,-159.2 573.59,-151.31 601.53,-144.86 627.18,-139.82"/>
<polygon fill="#999999" stroke="#999999" points="634.71,-138.37 627.98,-143.1 631.02,-139.08 627.34,-139.79 627.34,-139.79 627.34,-139.79 631.02,-139.08 626.7,-136.47 634.71,-138.37 634.71,-138.37"/>
<text text-anchor="middle" x="582.63" y="-163.2" font-family="Helvetica,sans-Serif" font-size="14.00">image3.jpg</text>
</g>
<!-- /thumbnails/image4.jpg -->
<g id="node15" class="node">
<title>/thumbnails/image4.jpg</title>
<polygon fill="none" stroke="#b3b3b3" points="794.74,-90 634.9,-90 634.9,-54 794.74,-54 794.74,-90"/>
<text text-anchor="middle" x="714.82" y="-67.8" font-family="Helvetica,sans-Serif" font-size="14.00">/thumbnails/image4.jpg</text>
</g>
<!-- /thumbnails&#45;&gt;/thumbnails/image4.jpg -->
<g id="edge14" class="edge">
<title>/thumbnails&#45;&gt;/thumbnails/image4.jpg</title>
<path fill="none" stroke="#999999" d="M407.33,-180.65C421.87,-183.94 490.53,-197.29 530.4,-167 547.81,-153.77 532.29,-135.99 548.4,-121.2 569.98,-101.39 599.2,-89.54 627.08,-82.45"/>
<polygon fill="#999999" stroke="#999999" points="634.51,-80.66 628.01,-85.7 630.87,-81.54 627.22,-82.41 627.22,-82.41 627.22,-82.41 630.87,-81.54 626.43,-79.13 634.51,-80.66 634.51,-80.66"/>
<text text-anchor="middle" x="582.63" y="-126.2" font-family="Helvetica,sans-Serif" font-size="14.00">image4.jpg</text>
</g>
<!-- /thumbnails/image5.jpg -->
<g id="node16" class="node">
<title>/thumbnails/image5.jpg</title>
<polygon fill="none" stroke="#b3b3b3" points="794.74,-36 634.9,-36 634.9,0 794.74,0 794.74,-36"/>
<text text-anchor="middle" x="714.82" y="-13.8" font-family="Helvetica,sans-Serif" font-size="14.00">/thumbnails/image5.jpg</text>
</g>
<!-- /thumbnails&#45;&gt;/thumbnails/image5.jpg -->
<g id="edge15" class="edge">
<title>/thumbnails&#45;&gt;/thumbnails/image5.jpg</title>
<path fill="none" stroke="#999999" d="M407.06,-180.69C421.32,-184.48 493.39,-201.37 530.4,-167 563.74,-136.03 517.98,-100.05 548.4,-66.2 568.49,-43.83 598.31,-31.6 627.12,-24.99"/>
<polygon fill="#999999" stroke="#999999" points="634.81,-23.35 628.18,-28.22 631.14,-24.13 627.47,-24.92 627.47,-24.92 627.47,-24.92 631.14,-24.13 626.77,-21.62 634.81,-23.35 634.81,-23.35"/>
<text text-anchor="middle" x="582.63" y="-71.2" font-family="Helvetica,sans-Serif" font-size="14.00">image5.jpg</text>
</g>
</g>
</svg>

