<?xml version="1.0" encoding="UTF-8" standalone="no"?>
<!DOCTYPE svg PUBLIC "-//W3C//DTD SVG 1.1//EN"
 "http://www.w3.org/Graphics/SVG/1.1/DTD/svg11.dtd">
<!-- Generated by graphviz version 2.44.0 (20200518.1210)
 -->
<!-- Title: g Pages: 1 -->
<svg width="233pt" height="152pt"
 viewBox="0.00 0.00 232.68 152.00" xmlns="http://www.w3.org/2000/svg" xmlns:xlink="http://www.w3.org/1999/xlink">
<g id="graph0" class="graph" transform="scale(1 1) rotate(0) translate(4 148)">
<title>g</title>
<polygon fill="white" stroke="transparent" points="-4,4 -4,-148 228.68,-148 228.68,4 -4,4"/>
<g id="node1" class="node">
<title></title>
<ellipse fill="none" stroke="#666666" cx="3.5" cy="-72" rx="3.5" ry="3.5"/>
</g>
<!-- /Alice -->
<g id="node2" class="node">
<title>/Alice</title>
<polygon fill="none" stroke="#b3b3b3" points="221.84,-144 79.28,-144 79.28,-108 221.84,-108 221.84,-144"/>
<text text-anchor="middle" x="150.56" y="-121.8" font-family="Helvetica,sans-Serif" font-size="14.00">Hello, Alice! This i…</text>
</g>
<!-- &#45;&gt;/Alice -->
<g id="edge1" class="edge">
<title>&#45;&gt;/Alice</title>
<path fill="none" stroke="#999999" d="M6.12,-74.36C9.24,-78.72 16.55,-88.07 25,-93 39.24,-101.31 55.61,-107.57 71.7,-112.27"/>
<polygon fill="#999999" stroke="#999999" points="79.06,-114.33 70.93,-115.56 75.45,-113.32 71.84,-112.31 71.84,-112.31 71.84,-112.31 75.45,-113.32 72.74,-109.06 79.06,-114.33 79.06,-114.33"/>
<text text-anchor="middle" x="41.72" y="-111.2" font-family="Helvetica,sans-Serif" font-size="14.00">Alice</text>
</g>
<!-- /Bob -->
<g id="node3" class="node">
<title>/Bob</title>
<polygon fill="none" stroke="#b3b3b3" points="224.8,-90 76.32,-90 76.32,-54 224.8,-54 224.8,-90"/>
<text text-anchor="middle" x="150.56" y="-67.8" font-family="Helvetica,sans-Serif" font-size="14.00">Hello, Bob! This is …</text>
</g>
<!-- &#45;&gt;/Bob -->
<g id="edge2" class="edge">
<title>&#45;&gt;/Bob</title>
<path fill="none" stroke="#999999" d="M7.02,-72C15,-72 40.82,-72 68.33,-72"/>
<polygon fill="#999999" stroke="#999999" points="76.13,-72 68.63,-75.38 72.38,-72 68.63,-72 68.63,-72 68.63,-72 72.38,-72 68.63,-68.63 76.13,-72 76.13,-72"/>
<text text-anchor="middle" x="41.72" y="-76.2" font-family="Helvetica,sans-Serif" font-size="14.00">Bob</text>
</g>
<!-- /Carol -->
<g id="node4" class="node">
<title>/Carol</title>
<polygon fill="none" stroke="#b3b3b3" points="223.45,-36 77.67,-36 77.67,0 223.45,0 223.45,-36"/>
<text text-anchor="middle" x="150.56" y="-13.8" font-family="Helvetica,sans-Serif" font-size="14.00">Hello, Carol! This i…</text>
</g>
<!-- &#45;&gt;/Carol -->
<g id="edge3" class="edge">
<title>&#45;&gt;/Carol</title>
<path fill="none" stroke="#999999" d="M6.13,-69.67C9.26,-65.35 16.58,-56.09 25,-51.2 38.72,-43.23 54.39,-37.12 69.88,-32.46"/>
<polygon fill="#999999" stroke="#999999" points="77.47,-30.29 71.19,-35.6 73.86,-31.32 70.26,-32.36 70.26,-32.36 70.26,-32.36 73.86,-31.32 69.33,-29.11 77.47,-30.29 77.47,-30.29"/>
<text text-anchor="middle" x="41.72" y="-56.2" font-family="Helvetica,sans-Serif" font-size="14.00">Carol</text>
</g>
</g>
</svg>

