<?xml version="1.0" encoding="UTF-8" standalone="no"?>
<!DOCTYPE svg PUBLIC "-//W3C//DTD SVG 1.1//EN"
 "http://www.w3.org/Graphics/SVG/1.1/DTD/svg11.dtd">
<!-- Generated by graphviz version 2.44.0 (20200518.1210)
 -->
<!-- Title: g Pages: 1 -->
<svg width="268pt" height="152pt"
 viewBox="0.00 0.00 267.71 152.00" xmlns="http://www.w3.org/2000/svg" xmlns:xlink="http://www.w3.org/1999/xlink">
<g id="graph0" class="graph" transform="scale(1 1) rotate(0) translate(4 148)">
<title>g</title>
<polygon fill="white" stroke="transparent" points="-4,4 -4,-148 263.71,-148 263.71,4 -4,4"/>
<g id="node1" class="node">
<title></title>
<ellipse fill="none" stroke="#666666" cx="3.5" cy="-72" rx="3.5" ry="3.5"/>
</g>
<!-- /Alice.html -->
<g id="node2" class="node">
<title>/Alice.html</title>
<polygon fill="none" stroke="#b3b3b3" points="257.23,-144 109.25,-144 109.25,-108 257.23,-108 257.23,-144"/>
<text text-anchor="middle" x="183.24" y="-121.8" font-family="Helvetica,sans-Serif" font-size="14.00">&lt;p&gt;Hello, &lt;strong&gt;Al</text>
</g>
<!-- &#45;&gt;/Alice.html -->
<g id="edge1" class="edge">
<title>&#45;&gt;/Alice.html</title>
<path fill="none" stroke="#999999" d="M6.1,-74.4C9.18,-78.83 16.43,-88.29 25,-93 48.37,-105.83 76.2,-113.68 101.91,-118.48"/>
<polygon fill="#999999" stroke="#999999" points="109.45,-119.81 101.48,-121.83 105.76,-119.16 102.07,-118.51 102.07,-118.51 102.07,-118.51 105.76,-119.16 102.65,-115.18 109.45,-119.81 109.45,-119.81"/>
<text text-anchor="middle" x="56.88" y="-119.2" font-family="Helvetica,sans-Serif" font-size="14.00">Alice.html</text>
</g>
<!-- /Bob.html -->
<g id="node3" class="node">
<title>/Bob.html</title>
<polygon fill="none" stroke="#b3b3b3" points="259.4,-90 107.07,-90 107.07,-54 259.4,-54 259.4,-90"/>
<text text-anchor="middle" x="183.24" y="-67.8" font-family="Helvetica,sans-Serif" font-size="14.00">&lt;p&gt;Hello, &lt;strong&gt;Bo</text>
</g>
<!-- &#45;&gt;/Bob.html -->
<g id="edge2" class="edge">
<title>&#45;&gt;/Bob.html</title>
<path fill="none" stroke="#999999" d="M7.01,-72C17.5,-72 59.06,-72 99.08,-72"/>
<polygon fill="#999999" stroke="#999999" points="107.05,-72 99.55,-75.38 103.3,-72 99.55,-72 99.55,-72 99.55,-72 103.3,-72 99.55,-68.63 107.05,-72 107.05,-72"/>
<text text-anchor="middle" x="56.88" y="-76.2" font-family="Helvetica,sans-Serif" font-size="14.00">Bob.html</text>
</g>
<!-- /Carol.html -->
<g id="node4" class="node">
<title>/Carol.html</title>
<polygon fill="none" stroke="#b3b3b3" points="259.67,-36 106.8,-36 106.8,0 259.67,0 259.67,-36"/>
<text text-anchor="middle" x="183.24" y="-13.8" font-family="Helvetica,sans-Serif" font-size="14.00">&lt;p&gt;Hello, &lt;strong&gt;Ca</text>
</g>
<!-- &#45;&gt;/Carol.html -->
<g id="edge3" class="edge">
<title>&#45;&gt;/Carol.html</title>
<path fill="none" stroke="#999999" d="M6.1,-69.63C9.2,-65.24 16.46,-55.87 25,-51.2 47.52,-38.89 74.15,-31.14 99.04,-26.26"/>
<polygon fill="#999999" stroke="#999999" points="106.7,-24.84 99.95,-29.52 103.02,-25.52 99.33,-26.21 99.33,-26.21 99.33,-26.21 103.02,-25.52 98.71,-22.89 106.7,-24.84 106.7,-24.84"/>
<text text-anchor="middle" x="56.88" y="-56.2" font-family="Helvetica,sans-Serif" font-size="14.00">Carol.html</text>
</g>
</g>
</svg>
