<?xml version="1.0" encoding="UTF-8" standalone="no"?>
<!DOCTYPE svg PUBLIC "-//W3C//DTD SVG 1.1//EN"
 "http://www.w3.org/Graphics/SVG/1.1/DTD/svg11.dtd">
<!-- Generated by graphviz version 2.44.0 (20200518.1210)
 -->
<!-- Title: g Pages: 1 -->
<svg width="223pt" height="152pt"
 viewBox="0.00 0.00 222.55 152.00" xmlns="http://www.w3.org/2000/svg" xmlns:xlink="http://www.w3.org/1999/xlink">
<g id="graph0" class="graph" transform="scale(1 1) rotate(0) translate(4 148)">
<title>g</title>
<polygon fill="white" stroke="transparent" points="-4,4 -4,-148 218.55,-148 218.55,4 -4,4"/>
<g id="node1" class="node">
<title></title>
<ellipse fill="none" stroke="#666666" cx="3.5" cy="-72" rx="3.5" ry="3.5"/>
</g>
<!-- /Alice.md -->
<g id="node2" class="node">
<title>/Alice.md</title>
<polygon fill="none" stroke="#b3b3b3" points="212.83,-144 101.49,-144 101.49,-108 212.83,-108 212.83,-144"/>
<text text-anchor="middle" x="157.16" y="-121.8" font-family="Helvetica,sans-Serif" font-size="14.00">Hello, **Alice**.</text>
</g>
<!-- &#45;&gt;/Alice.md -->
<g id="edge1" class="edge">
<title>&#45;&gt;/Alice.md</title>
<path fill="none" stroke="#999999" d="M6.11,-74.37C9.23,-78.75 16.52,-88.12 25,-93 45.85,-104.99 71.01,-112.67 93.69,-117.57"/>
<polygon fill="#999999" stroke="#999999" points="101.28,-119.12 93.26,-120.92 97.61,-118.37 93.93,-117.62 93.93,-117.62 93.93,-117.62 97.61,-118.37 94.61,-114.31 101.28,-119.12 101.28,-119.12"/>
<text text-anchor="middle" x="53.39" y="-118.2" font-family="Helvetica,sans-Serif" font-size="14.00">Alice.md</text>
</g>
<!-- /Bob.md -->
<g id="node3" class="node">
<title>/Bob.md</title>
<polygon fill="none" stroke="#b3b3b3" points="210.4,-90 103.92,-90 103.92,-54 210.4,-54 210.4,-90"/>
<text text-anchor="middle" x="157.16" y="-67.8" font-family="Helvetica,sans-Serif" font-size="14.00">Hello, **Bob**.</text>
</g>
<!-- &#45;&gt;/Bob.md -->
<g id="edge2" class="edge">
<title>&#45;&gt;/Bob.md</title>
<path fill="none" stroke="#999999" d="M7.13,-72C17.89,-72 59.69,-72 96.29,-72"/>
<polygon fill="#999999" stroke="#999999" points="104.01,-72 96.51,-75.38 100.26,-72 96.51,-72 96.51,-72 96.51,-72 100.26,-72 96.51,-68.63 104.01,-72 104.01,-72"/>
<text text-anchor="middle" x="53.39" y="-76.2" font-family="Helvetica,sans-Serif" font-size="14.00">Bob.md</text>
</g>
<!-- /Carol.md -->
<g id="node4" class="node">
<title>/Carol.md</title>
<polygon fill="none" stroke="#b3b3b3" points="214.43,-36 99.89,-36 99.89,0 214.43,0 214.43,-36"/>
<text text-anchor="middle" x="157.16" y="-13.8" font-family="Helvetica,sans-Serif" font-size="14.00">Hello, **Carol**.</text>
</g>
<!-- &#45;&gt;/Carol.md -->
<g id="edge3" class="edge">
<title>&#45;&gt;/Carol.md</title>
<path fill="none" stroke="#999999" d="M6.12,-69.66C9.25,-65.32 16.55,-56.04 25,-51.2 45.42,-39.5 69.94,-31.88 92.23,-26.93"/>
<polygon fill="#999999" stroke="#999999" points="99.69,-25.35 93.05,-30.2 96.02,-26.12 92.35,-26.9 92.35,-26.9 92.35,-26.9 96.02,-26.12 91.65,-23.6 99.69,-25.35 99.69,-25.35"/>
<text text-anchor="middle" x="53.39" y="-56.2" font-family="Helvetica,sans-Serif" font-size="14.00">Carol.md</text>
</g>
</g>
</svg>
