<?xml version="1.0" encoding="UTF-8" standalone="no"?>
<!DOCTYPE svg PUBLIC "-//W3C//DTD SVG 1.1//EN"
 "http://www.w3.org/Graphics/SVG/1.1/DTD/svg11.dtd">
<!-- Generated by graphviz version 2.44.0 (20200518.1210)
 -->
<!-- Title: g Pages: 1 -->
<svg width="251pt" height="152pt"
 viewBox="0.00 0.00 251.34 152.00" xmlns="http://www.w3.org/2000/svg" xmlns:xlink="http://www.w3.org/1999/xlink">
<g id="graph0" class="graph" transform="scale(1 1) rotate(0) translate(4 148)">
<title>g</title>
<polygon fill="white" stroke="transparent" points="-4,4 -4,-148 247.34,-148 247.34,4 -4,4"/>
<g id="node1" class="node">
<title></title>
<ellipse fill="none" stroke="#666666" cx="3.5" cy="-72" rx="3.5" ry="3.5"/>
</g>
<!-- /Alice.md -->
<g id="node2" class="node">
<title>/Alice.md</title>
<polygon fill="none" stroke="#b3b3b3" points="239.36,-144 103.76,-144 103.76,-108 239.36,-108 239.36,-144"/>
<text text-anchor="middle" x="171.56" y="-121.8" font-family="Helvetica,sans-Serif" font-size="14.00">HELLO, **ALICE**.</text>
</g>
<!-- &#45;&gt;/Alice.md -->
<g id="edge1" class="edge">
<title>&#45;&gt;/Alice.md</title>
<path fill="none" stroke="#999999" d="M6.1,-74.39C9.2,-78.8 16.46,-88.22 25,-93 46.53,-105.05 72.17,-112.7 95.89,-117.55"/>
<polygon fill="#999999" stroke="#999999" points="103.52,-119.04 95.52,-120.92 99.84,-118.32 96.16,-117.61 96.16,-117.61 96.16,-117.61 99.84,-118.32 96.8,-114.29 103.52,-119.04 103.52,-119.04"/>
<text text-anchor="middle" x="53.39" y="-117.2" font-family="Helvetica,sans-Serif" font-size="14.00">Alice.md</text>
</g>
<!-- /Bob.md -->
<g id="node3" class="node">
<title>/Bob.md</title>
<polygon fill="none" stroke="#b3b3b3" points="233.97,-90 109.15,-90 109.15,-54 233.97,-54 233.97,-90"/>
<text text-anchor="middle" x="171.56" y="-67.8" font-family="Helvetica,sans-Serif" font-size="14.00">HELLO, **BOB**.</text>
</g>
<!-- &#45;&gt;/Bob.md -->
<g id="edge2" class="edge">
<title>&#45;&gt;/Bob.md</title>
<path fill="none" stroke="#999999" d="M7.11,-72C18.06,-72 61.55,-72 100.92,-72"/>
<polygon fill="#999999" stroke="#999999" points="108.72,-72 101.22,-75.38 104.97,-72 101.22,-72 101.22,-72 101.22,-72 104.97,-72 101.22,-68.63 108.72,-72 108.72,-72"/>
<text text-anchor="middle" x="53.39" y="-76.2" font-family="Helvetica,sans-Serif" font-size="14.00">Bob.md</text>
</g>
<!-- /Carol.md -->
<g id="node4" class="node">
<title>/Carol.md</title>
<polygon fill="none" stroke="#b3b3b3" points="243.13,-36 99.99,-36 99.99,0 243.13,0 243.13,-36"/>
<text text-anchor="middle" x="171.56" y="-13.8" font-family="Helvetica,sans-Serif" font-size="14.00">HELLO, **CAROL**.</text>
</g>
<!-- &#45;&gt;/Carol.md -->
<g id="edge3" class="edge">
<title>&#45;&gt;/Carol.md</title>
<path fill="none" stroke="#999999" d="M6.11,-69.64C9.22,-65.27 16.5,-55.94 25,-51.2 45.44,-39.81 69.57,-32.32 92.25,-27.4"/>
<polygon fill="#999999" stroke="#999999" points="99.87,-25.83 93.21,-30.65 96.2,-26.59 92.53,-27.34 92.53,-27.34 92.53,-27.34 96.2,-26.59 91.85,-24.04 99.87,-25.83 99.87,-25.83"/>
<text text-anchor="middle" x="53.39" y="-56.2" font-family="Helvetica,sans-Serif" font-size="14.00">Carol.md</text>
</g>
</g>
</svg>
